<?xml version="1.0" encoding="UTF-8"?>
<svg version="1.1" xmlns="http://www.w3.org/2000/svg" width="428" height="363">
<path d="M0 0 C1.08667969 -0.00386719 2.17335938 -0.00773437 3.29296875 -0.01171875 C4.32292969 -0.01042969 5.35289062 -0.00914063 6.4140625 -0.0078125 C7.34428223 -0.00668457 8.27450195 -0.00555664 9.23291016 -0.00439453 C11.375 0.125 11.375 0.125 12.375 1.125 C12.38466306 10.23001708 10.10060098 19.37139421 8.39520264 28.27374268 C5.64320046 42.69632641 3.1574456 57.13963056 1.0546875 71.671875 C0.91013248 72.66845564 0.91013248 72.66845564 0.76265717 73.68516922 C-0.28405246 80.91290861 -1.30523052 88.1437091 -2.30273438 95.37841797 C-8.22444677 137.62437832 -19.26313767 179.40094854 -46.625 213.125 C-47.07601074 213.6828418 -47.52702148 214.24068359 -47.99169922 214.81542969 C-66.18739035 237.15798846 -88.7216203 253.69634152 -115.625 264.125 C-116.59566406 264.50398438 -117.56632812 264.88296875 -118.56640625 265.2734375 C-127.02880793 268.33602097 -135.74613637 269.84077276 -144.625 271.125 C-145.31368164 271.23593994 -146.00236328 271.34687988 -146.71191406 271.46118164 C-151.1172478 272.0823317 -155.15208637 272.06904065 -159.5859375 271.66015625 C-170.51427494 270.36429762 -170.51427494 270.36429762 -180.68798828 273.43310547 C-184.22220831 277.02763287 -186.37945374 281.35716857 -188.51416016 285.88037109 C-189.93904533 288.75957863 -191.67468879 291.34861161 -193.46484375 294.01025391 C-199.16935418 302.56485219 -203.4580802 311.76323204 -207.69482422 321.10644531 C-208.94144219 323.81170446 -210.27270023 326.47127067 -211.625 329.125 C-213.18268427 325.13847037 -212.04767887 321.64562896 -211.03515625 317.66796875 C-210.76612991 316.57111504 -210.76612991 316.57111504 -210.4916687 315.45210266 C-209.90198554 313.06912893 -209.29629047 310.69065934 -208.6875 308.3125 C-208.4821463 307.50055176 -208.2767926 306.68860352 -208.06521606 305.85205078 C-204.63409615 292.32848882 -200.64342788 279.15253309 -195.625 266.125 C-195.17205566 264.92375488 -195.17205566 264.92375488 -194.70996094 263.69824219 C-185.67188215 239.80144487 -174.85943773 216.54236913 -162.625 194.125 C-162.10292969 193.16013672 -162.10292969 193.16013672 -161.5703125 192.17578125 C-149.3918436 169.78148927 -135.11364535 148.35451767 -119.625 128.125 C-118.8027815 127.03300655 -117.98118497 125.94054454 -117.16015625 124.84765625 C-112.58409123 118.78688879 -107.84179343 112.96428974 -102.69140625 107.375 C-100.86886514 105.3905318 -99.11716442 103.36714108 -97.375 101.3125 C-90.24501068 93.13544932 -82.39457885 85.39905492 -74.11328125 78.39453125 C-72.49689265 77.04960715 -72.49689265 77.04960715 -70.625 75.125 C-90.32014981 84.76174368 -107.3774944 96.43984214 -123.625 111.125 C-124.23972168 111.67800781 -124.85444336 112.23101562 -125.48779297 112.80078125 C-138.85797209 124.8854318 -150.80113716 137.71649167 -161.625 152.125 C-162.3687085 153.10799072 -162.3687085 153.10799072 -163.12744141 154.11083984 C-176.50294269 171.8815705 -188.05731905 190.62688434 -198.25 210.375 C-198.5859317 211.02431488 -198.9218634 211.67362976 -199.26797485 212.34262085 C-203.44439441 220.44944024 -207.26374716 228.64024591 -210.625 237.125 C-212.625 236.125 -212.625 236.125 -213.35522461 234.36938477 C-213.57702393 233.60940186 -213.79882324 232.84941895 -214.02734375 232.06640625 C-214.27661621 231.2158667 -214.52588867 230.36532715 -214.78271484 229.48901367 C-216.11219472 224.71262621 -217.40687072 219.93112012 -218.625 215.125 C-218.90706299 214.01560059 -218.90706299 214.01560059 -219.19482422 212.88378906 C-228.62219935 173.6862513 -218.6691495 129.2375516 -198.30078125 95.15625 C-191.250313 83.7609512 -182.77984452 73.85621101 -173.625 64.125 C-172.69107422 63.09246094 -172.69107422 63.09246094 -171.73828125 62.0390625 C-161.55297134 51.18999082 -148.49968138 42.44373697 -135.625 35.125 C-134.01238281 34.17947266 -134.01238281 34.17947266 -132.3671875 33.21484375 C-93.50577205 11.0375897 -44.47501253 -0.16411444 0 0 Z " fill="#42B311" transform="translate(399.625,17.875)"/>
<path d="M0 0 C16.66276711 -0.77109488 31.81915722 1.02461945 48 5 C48.80163574 5.19223145 49.60327148 5.38446289 50.42919922 5.58251953 C82.81059662 13.54096093 113.0287744 32.51825968 130.6875 61.1875 C145.14058039 85.71920353 148.663496 112.31476066 142 140 C141.34 140 140.68 140 140 140 C139.39414063 138.87464844 138.78828125 137.74929688 138.1640625 136.58984375 C129.94873884 121.47596705 120.80313849 107.39032437 110 94 C109.56574707 93.46133301 109.13149414 92.92266602 108.68408203 92.36767578 C93.71204521 73.93844961 76.29150046 57.13448703 54 48 C55.6276996 49.6276996 57.49982086 50.9583927 59.3125 52.375 C69.41257257 60.46948673 78.00983598 68.80414171 86 79 C86.71542969 79.83789062 87.43085937 80.67578125 88.16796875 81.5390625 C108.44332579 105.29532154 140 150.80153302 140 183 C139.34 183 138.68 183 138 183 C136.52014775 180.88118915 135.15855439 178.7639095 133.8125 176.5625 C132.98281741 175.27927064 132.152085 173.99671945 131.3203125 172.71484375 C129.91500886 170.51954671 128.71108081 168.41357212 127.5546875 166.06640625 C125.92455281 163.15545145 124.8835621 161.72474743 122 160 C117.10286096 159.22412076 112.14185913 159.63491571 107.2109375 159.859375 C84.79882338 160.79423816 63.53648221 149.08914458 47.46044922 134.36572266 C16.79408906 105.68842097 8.63945476 62.89582756 2.125 23.3125 C1.909646 22.01860352 1.69429199 20.72470703 1.47241211 19.39160156 C0.43294113 12.84056704 -0.24431557 6.63244926 0 0 Z " fill="#43B312" transform="translate(18,146)"/>
<path d="M0 0 C0.33 0 0.66 0 1 0 C1.19392201 5.52677733 0.7479503 9.75614911 -1 15 C-0.195625 15.309375 0.60875 15.61875 1.4375 15.9375 C4 17 4 17 5 18 C5.66 16.35 6.32 14.7 7 13 C7.66 13 8.32 13 9 13 C8.67 10.69 8.34 8.38 8 6 C9.32 5.67 10.64 5.34 12 5 C12 5.66 12 6.32 12 7 C12.66 7.33 13.32 7.66 14 8 C13.52691406 8.69222656 13.05382812 9.38445312 12.56640625 10.09765625 C3.86069292 22.97803913 -3.72924385 35.9789705 -10.14746094 50.15283203 C-11.3693027 52.80015584 -12.67838729 55.40136887 -14 58 C-15.59863616 53.96753239 -14.3764075 50.38755123 -13.33984375 46.3671875 C-13.15466187 45.62137421 -12.96947998 44.87556091 -12.77868652 44.10714722 C-12.17537189 41.69366931 -11.55727397 39.28429921 -10.9375 36.875 C-10.73158234 36.06164185 -10.52566467 35.24828369 -10.31350708 34.41027832 C-7.36589475 22.76749081 -4.19916157 11.2636334 0 0 Z " fill="#4AAB1F" transform="translate(202,289)"/>
<path d="M0 0 C4.29 0 8.58 0 13 0 C22 23.73786408 22 23.73786408 22 28 C21.34 28 20.68 28 20 28 C18.52005592 25.88105766 17.15648314 23.7653965 15.8125 21.5625 C14.99709146 20.27718395 14.17937238 18.99333086 13.359375 17.7109375 C11.96003464 15.51565234 10.57493061 13.31434459 9.203125 11.1015625 C6.14622657 6.54658914 6.14622657 6.54658914 1.34375 4.234375 C-1.14695589 3.96851314 -3.50076245 3.87428383 -6 4 C-6 3.67 -6 3.34 -6 3 C-5.195625 2.87625 -4.39125 2.7525 -3.5625 2.625 C-2.716875 2.41875 -1.87125 2.2125 -1 2 C-0.67 1.34 -0.34 0.68 0 0 Z " fill="#48A918" transform="translate(136,301)"/>
<path d="M0 0 C0.33 1.32 0.66 2.64 1 4 C1.33 3.34 1.66 2.68 2 2 C2.99 2.33 3.98 2.66 5 3 C4.01 4.485 4.01 4.485 3 6 C2.01 6 1.02 6 0 6 C0.144375 6.5775 0.28875 7.155 0.4375 7.75 C0.623125 8.4925 0.80875 9.235 1 10 C1.3403125 11.051875 1.3403125 11.051875 1.6875 12.125 C1.790625 12.74375 1.89375 13.3625 2 14 C1.34 14.66 0.68 15.32 0 16 C-0.66 14.68 -1.32 13.36 -2 12 C-4.22189824 14.22189824 -4.92598892 16.08482708 -6 19 C-6.99 19 -7.98 19 -9 19 C-9 19.66 -9 20.32 -9 21 C-9.66 21 -10.32 21 -11 21 C-9.53171057 15.82064939 -7.18508737 11.65626588 -4.375 7.125 C-3.95476562 6.43664062 -3.53453125 5.74828125 -3.1015625 5.0390625 C-2.07307528 3.35608342 -1.037279 1.67757468 0 0 Z " fill="#44B113" transform="translate(250,190)"/>
<path d="M0 0 C1.4342432 0.00503243 2.86848815 0.00959221 4.30273438 0.01367188 C7.76435998 0.02452241 11.22591822 0.0416876 14.6875 0.0625 C14.6875 0.3925 14.6875 0.7225 14.6875 1.0625 C3.7449608 2.8889745 -6.79401114 3.23015443 -17.88061523 2.8125 C-18.91516846 2.78929687 -19.94972168 2.76609375 -21.015625 2.7421875 C-21.94020508 2.70851074 -22.86478516 2.67483398 -23.81738281 2.64013672 C-27.06563317 3.18998732 -28.22941816 4.59120191 -30.3125 7.0625 C-30.6425 5.4125 -30.9725 3.7625 -31.3125 2.0625 C-22.79842481 -2.1945376 -9.49371794 -0.05885683 0 0 Z " fill="#48A321" transform="translate(247.3125,286.9375)"/>
<path d="M0 0 C0.66 0.33 1.32 0.66 2 1 C0.25192871 6.46737191 -1.65794081 11.75824848 -4 17 C-6 16 -6 16 -6.88671875 14.0390625 C-7.15097656 13.24242187 -7.41523438 12.44578125 -7.6875 11.625 C-8.09548828 10.43777344 -8.09548828 10.43777344 -8.51171875 9.2265625 C-9 7 -9 7 -8 4 C-8 4.66 -8 5.32 -8 6 C-5.53199953 4.84826645 -3.95216435 3.95216435 -2 2 C-1.34 1.34 -0.68 0.68 0 0 Z " fill="#48AC1F" transform="translate(193,238)"/>
<path d="M0 0 C15.52506847 -0.51275455 29.82756846 0.63282617 45 4 C45 4.33 45 4.66 45 5 C43.54364629 5.22174933 42.08477044 5.42698698 40.625 5.625 C39.81289063 5.74101562 39.00078125 5.85703125 38.1640625 5.9765625 C37.44992188 5.98429688 36.73578125 5.99203125 36 6 C35.34 5.34 34.68 4.68 34 4 C31.41935871 3.85502015 28.95056116 3.81322455 26.375 3.875 C25.66859375 3.88402344 24.9621875 3.89304688 24.234375 3.90234375 C22.48943902 3.92592397 20.74467705 3.96179539 19 4 C19 3.01 19 2.02 19 1 C13.06 1 7.12 1 1 1 C1 3.64 1 6.28 1 9 C0.67 9 0.34 9 0 9 C0 6.03 0 3.06 0 0 Z " fill="#47A425" transform="translate(18,146)"/>
<path d="M0 0 C-3.40381235 2.711388 -5.60231644 3.65508364 -10 4 C-12.33425788 3.6732039 -14.66742506 3.33859959 -17 3 C-23.1349387 2.77706145 -28.95381079 2.90069287 -35 4 C-37.67329087 4.08323433 -40.32440997 4.04613086 -43 4 C-43 3.67 -43 3.34 -43 3 C-28.55780961 0.64140861 -14.62897436 -0.40386739 0 0 Z " fill="#52B127" transform="translate(397,19)"/>
<path d="M0 0 C-0.66 1.98 -1.32 3.96 -2 6 C-7.625 7.125 -7.625 7.125 -11 6 C-11.226875 6.639375 -11.45375 7.27875 -11.6875 7.9375 C-13 10 -13 10 -15.4375 10.75 C-18 11 -18 11 -21 11 C-22.33981486 11.3062434 -23.67511887 11.63451555 -25 12 C-22.77264682 9.53672089 -20.64835747 8.15864556 -17.65625 6.73828125 C-16.82222656 6.34189453 -15.98820312 5.94550781 -15.12890625 5.53710938 C-13.82759766 4.93092773 -13.82759766 4.93092773 -12.5 4.3125 C-11.63246094 3.89677734 -10.76492188 3.48105469 -9.87109375 3.05273438 C-3.38465979 0 -3.38465979 0 0 0 Z " fill="#59B02E" transform="translate(291,41)"/>
<path d="M0 0 C0 4.20547571 -2.36738124 6.16710361 -5 9.1875 C-5.47695312 9.74630859 -5.95390625 10.30511719 -6.4453125 10.88085938 C-7.62366206 12.25952836 -8.81098952 13.63051472 -10 15 C-11.51953125 13.73046875 -11.51953125 13.73046875 -13 12 C-12.6875 8.3125 -12.6875 8.3125 -12 5 C-9.36 5 -6.72 5 -4 5 C-4 3.68 -4 2.36 -4 1 C-2.68 0.67 -1.36 0.34 0 0 Z " fill="#47B117" transform="translate(247,156)"/>
<path d="M0 0 C1.98 0.66 3.96 1.32 6 2 C6 3.65 6 5.3 6 7 C5.34 7 4.68 7 4 7 C3.67 6.34 3.34 5.68 3 5 C1.55475116 9.42605006 1.55475116 9.42605006 1 14 C0.34 14 -0.32 14 -1 14 C-1 14.66 -1 15.32 -1 16 C-1.66 16 -2.32 16 -3 16 C-4.09039672 12.07457183 -3.95963655 10.50671803 -2 7 C-1.30269194 4.6756398 -0.63087848 2.34326294 0 0 Z " fill="#47B813" transform="translate(198,307)"/>
<path d="M0 0 C1.39734703 4.19204109 -0.10907966 7.17590779 -1.5 11.1875 C-1.76828613 11.97817871 -2.03657227 12.76885742 -2.31298828 13.58349609 C-5.09206946 21.58909941 -8.45764184 29.3074234 -12 37 C-12.33 37 -12.66 37 -13 37 C-13 35.35 -13 33.7 -13 32 C-12.34 32 -11.68 32 -11 32 C-10.67 28.37 -10.34 24.74 -10 21 C-9.01 20.67 -8.02 20.34 -7 20 C-6.16666667 18.08333333 -6.16666667 18.08333333 -6 16 C-6.33 15.34 -6.66 14.68 -7 14 C-6.67 13.34 -6.34 12.68 -6 12 C-5.01 12 -4.02 12 -3 12 C-2.86722656 11.21753906 -2.73445313 10.43507812 -2.59765625 9.62890625 C-2.42105469 8.61699219 -2.24445313 7.60507813 -2.0625 6.5625 C-1.88847656 5.55316406 -1.71445312 4.54382813 -1.53515625 3.50390625 C-1 1 -1 1 0 0 Z " fill="#47A622" transform="translate(386,161)"/>
<path d="M0 0 C2 1 2 1 2.796875 2.859375 C3 5 3 5 1.890625 6.703125 C1.34921875 7.21359375 0.8078125 7.7240625 0.25 8.25 C-0.28109375 8.77078125 -0.8121875 9.2915625 -1.359375 9.828125 C-3 11 -3 11 -6 11 C-6.33 10.34 -6.66 9.68 -7 9 C-8.32 8.67 -9.64 8.34 -11 8 C-7.37 5.36 -3.74 2.72 0 0 Z " fill="#4CAF1E" transform="translate(254,59)"/>
<path d="M0 0 C3.5 -0.3125 3.5 -0.3125 7 0 C7.66 0.66 8.32 1.32 9 2 C9.66 1.34 10.32 0.68 11 0 C14.625 0.375 14.625 0.375 18 1 C11.70648143 5.19567905 5.46819926 6.40735632 -2 6 C-2 3 -2 3 0 0 Z " fill="#3CA513" transform="translate(266,280)"/>
<path d="M0 0 C4.29 0 8.58 0 13 0 C13.33 1.32 13.66 2.64 14 4 C13.01 4 12.02 4 11 4 C10.67 4.66 10.34 5.32 10 6 C8.33388095 6.042721 6.66617115 6.04063832 5 6 C4.67 5.67 4.34 5.34 4 5 C2.31816052 4.76712992 0.6287584 4.58735834 -1.0625 4.4375 C-1.98160156 4.35371094 -2.90070313 4.26992188 -3.84765625 4.18359375 C-4.91306641 4.09271484 -4.91306641 4.09271484 -6 4 C-6 3.67 -6 3.34 -6 3 C-5.195625 2.87625 -4.39125 2.7525 -3.5625 2.625 C-2.716875 2.41875 -1.87125 2.2125 -1 2 C-0.67 1.34 -0.34 0.68 0 0 Z " fill="#4BB41C" transform="translate(136,301)"/>
<path d="M0 0 C2.44168979 3.03056792 4.13027389 6.09018596 5.75 9.625 C6.19859375 10.58664062 6.6471875 11.54828125 7.109375 12.5390625 C7.40328125 13.35117187 7.6971875 14.16328125 8 15 C7.67 15.66 7.34 16.32 7 17 C6.608125 16.175 6.21625 15.35 5.8125 14.5 C5.214375 13.675 4.61625 12.85 4 12 C1.37305578 11.58219121 1.37305578 11.58219121 -1 12 C-2.42944945 9.64561267 -3.08661261 8.51967567 -2.625 5.75 C-2.41875 5.1725 -2.2125 4.595 -2 4 C-1.34 4 -0.68 4 0 4 C0 2.68 0 1.36 0 0 Z " fill="#47B51C" transform="translate(140,283)"/>
<path d="M0 0 C0.95412881 2.57614778 1.01981848 3.91676239 0.375 6.625 C-1.35846454 9.61916603 -2.85563095 9.79062729 -6 11 C-6.8237956 12.96128755 -6.8237956 12.96128755 -7 15 C-7.33 15.66 -7.66 16.32 -8 17 C-7.34 17 -6.68 17 -6 17 C-6 17.66 -6 18.32 -6 19 C-8.86724686 18.42655063 -9.8614515 18.1385485 -12 16 C-10.75153512 14.26972464 -9.50115598 12.54083043 -8.25 10.8125 C-7.55390625 9.84957031 -6.8578125 8.88664063 -6.140625 7.89453125 C-4.15434805 5.20870786 -2.10500812 2.59333207 0 0 Z " fill="#48A623" transform="translate(284,141)"/>
<path d="M0 0 C0.66 0 1.32 0 2 0 C2.28875 0.61875 2.5775 1.2375 2.875 1.875 C3.93720042 4.13325765 3.93720042 4.13325765 6 6 C6 7.32 6 8.64 6 10 C7.32 10 8.64 10 10 10 C10.66 8.35 11.32 6.7 12 5 C13.07310858 8.27185553 12.89263102 10.42947592 12.0625 13.75 C11.86785156 14.54921875 11.67320312 15.3484375 11.47265625 16.171875 C11.31667969 16.77515625 11.16070312 17.3784375 11 18 C10.34 18 9.68 18 9 18 C7.49480613 15.37785672 5.99568681 12.75255792 4.5 10.125 C3.85611328 9.00544922 3.85611328 9.00544922 3.19921875 7.86328125 C2.79316406 7.14785156 2.38710937 6.43242187 1.96875 5.6953125 C1.59169922 5.03547363 1.21464844 4.37563477 0.82617188 3.69580078 C0 2 0 2 0 0 Z " fill="#4AA320" transform="translate(149,268)"/>
<path d="M0 0 C0.33 0 0.66 0 1 0 C1.01981934 0.88260498 1.03963867 1.76520996 1.06005859 2.67456055 C1.13837866 5.96421957 1.22507855 9.25343964 1.31738281 12.54272461 C1.35555149 13.9635373 1.39042513 15.38444263 1.421875 16.80541992 C1.46779065 18.85368855 1.52573805 20.90132608 1.5859375 22.94921875 C1.6173584 24.17987061 1.6487793 25.41052246 1.68115234 26.6784668 C1.98786996 29.87363765 2.72747268 32.08698565 4 35 C3.9765625 37.67578125 3.9765625 37.67578125 3.625 40.3125 C3.51414063 41.19550781 3.40328125 42.07851562 3.2890625 42.98828125 C3.19367188 43.65214844 3.09828125 44.31601563 3 45 C2.67 45 2.34 45 2 45 C0.07077503 34.96563763 -0.24674692 25.34877374 -0.125 15.1875 C-0.11493652 13.70508426 -0.1058167 12.22266181 -0.09765625 10.74023438 C-0.07594075 7.16001326 -0.04160246 3.58005192 0 0 Z " fill="#4EA524" transform="translate(178,183)"/>
<path d="M0 0 C1.26982793 3.80948378 0.61250534 6.86077393 0.00390625 10.73046875 C-0.10848892 11.48088943 -0.22088409 12.23131012 -0.33668518 13.00447083 C-0.69701337 15.39986853 -1.06712692 17.79363694 -1.4375 20.1875 C-1.68358886 21.81175119 -1.92903937 23.43609924 -2.17382812 25.06054688 C-2.77515198 29.04152609 -3.38525578 33.021072 -4 37 C-4.33 37 -4.66 37 -5 37 C-5 30.4 -5 23.8 -5 17 C-4.01 17 -3.02 17 -2 17 C-2.02320313 15.94039062 -2.04640625 14.88078125 -2.0703125 13.7890625 C-2.08906944 12.4010487 -2.10726972 11.0130273 -2.125 9.625 C-2.14175781 8.92632812 -2.15851563 8.22765625 -2.17578125 7.5078125 C-2.19344267 5.67102514 -2.10303261 3.83398037 -2 2 C-1.34 1.34 -0.68 0.68 0 0 Z " fill="#48A524" transform="translate(399,91)"/>
<path d="M0 0 C-0.886875 0.433125 -1.77375 0.86625 -2.6875 1.3125 C-5.54429455 2.76784817 -8.27396863 4.31627474 -11 6 C-11.33 5.67 -11.66 5.34 -12 5 C-12.598125 5.309375 -13.19625 5.61875 -13.8125 5.9375 C-16 7 -16 7 -19 8 C-21.1875 6.5625 -21.1875 6.5625 -23 5 C-19.92209798 3.96225878 -16.83699754 2.94783083 -13.75 1.9375 C-12.87730469 1.64294922 -12.00460937 1.34839844 -11.10546875 1.04492188 C-10.26113281 0.77099609 -9.41679687 0.49707031 -8.546875 0.21484375 C-7.77182617 -0.04176025 -6.99677734 -0.29836426 -6.19824219 -0.56274414 C-3.77358397 -1.04503677 -2.32152179 -0.7792359 0 0 Z " fill="#55AF2B" transform="translate(327,30)"/>
<path d="M0 0 C2.01003635 3.01505452 2.99171541 5.57496212 4.125 9 C4.47820312 10.051875 4.83140625 11.10375 5.1953125 12.1875 C6 15 6 15 6 18 C5.34 18 4.68 18 4 18 C2.53417645 15.85718967 1.18876486 13.73293604 -0.125 11.5 C-0.49753906 10.87996094 -0.87007812 10.25992187 -1.25390625 9.62109375 C-2.17578953 8.08462162 -3.08873475 6.54279325 -4 5 C-3.34 4.67 -2.68 4.34 -2 4 C-1.01 5.485 -1.01 5.485 0 7 C0 4.69 0 2.38 0 0 Z " fill="#429F24" transform="translate(152,311)"/>
<path d="M0 0 C0.99 0.33 1.98 0.66 3 1 C3.66 0.67 4.32 0.34 5 0 C3.79347883 3.82065036 2.43757197 7.57374007 1 11.3125 C0.505 12.60607422 0.505 12.60607422 0 13.92578125 C-1 16 -1 16 -3 17 C-2.36934845 11.2190275 -1.34844868 5.6556294 0 0 Z " fill="#45A922" transform="translate(190,330)"/>
<path d="M0 0 C1.98 0 3.96 0 6 0 C6 1.65 6 3.3 6 5 C6.99 5.33 7.98 5.66 9 6 C11.42638194 8.03816083 12.70989008 10.12206249 14 13 C10.33620697 11.42491141 7.70148695 9.15806427 4.75 6.5 C3.85796875 5.7059375 2.9659375 4.911875 2.046875 4.09375 C0 2 0 2 0 0 Z " fill="#45A318" transform="translate(61,274)"/>
<path d="M0 0 C1.94566951 3.47547073 2.07637127 5.12506344 1 9 C-0.32 9.33 -1.64 9.66 -3 10 C-3.103125 10.86625 -3.20625 11.7325 -3.3125 12.625 C-4.03398414 16.16683123 -5.27123261 18.84312042 -7 22 C-8 20 -8 20 -7.37915039 17.93701172 C-7.03875732 17.10959473 -6.69836426 16.28217773 -6.34765625 15.4296875 C-5.80141602 14.08583984 -5.80141602 14.08583984 -5.24414062 12.71484375 C-4.65922852 11.30912109 -4.65922852 11.30912109 -4.0625 9.875 C-3.67642578 8.93011719 -3.29035156 7.98523438 -2.89257812 7.01171875 C-1.93524154 4.67156265 -0.97080009 2.33459572 0 0 Z " fill="#4FAE27" transform="translate(212,264)"/>
<path d="M0 0 C0.66 1.32 1.32 2.64 2 4 C1.2265625 4.8971875 1.2265625 4.8971875 0.4375 5.8125 C-0.2740625 6.8953125 -0.2740625 6.8953125 -1 8 C-0.67 8.99 -0.34 9.98 0 11 C0.66 11.33 1.32 11.66 2 12 C0.02 12.33 -1.96 12.66 -4 13 C-4.33 13.99 -4.66 14.98 -5 16 C-5.66 16 -6.32 16 -7 16 C-5.35433477 10.31497465 -2.70967216 5.23318364 0 0 Z " fill="#4BAC22" transform="translate(230,225)"/>
<path d="M0 0 C1.32 0.33 2.64 0.66 4 1 C1.69 4.3 -0.62 7.6 -3 11 C-3.66 9.68 -4.32 8.36 -5 7 C-4.02443861 4.07331584 -2.49776577 1.82529037 0 0 Z " fill="#47A91A" transform="translate(357,219)"/>
<path d="M0 0 C0.66 0.66 1.32 1.32 2 2 C-0.70879335 3.35439668 -3.00933268 3.06501451 -6 3 C-6.99 4.98 -7.98 6.96 -9 9 C-10.32 7.35 -11.64 5.7 -13 4 C-10.96180154 1.96180154 -9.70582202 1.32158941 -7.0625 0.3125 C-6.37285156 0.04050781 -5.68320312 -0.23148438 -4.97265625 -0.51171875 C-3 -1 -3 -1 0 0 Z " fill="#50B325" transform="translate(304,37)"/>
<path d="M0 0 C3.67882073 3.28466137 5.75150101 6.66360908 8 11 C8 11.66 8 12.32 8 13 C3.25 12.25 3.25 12.25 1 10 C1.33333333 8.66666667 1.66666667 7.33333333 2 6 C1.34 5.34 0.68 4.68 0 4 C0 2.68 0 1.36 0 0 Z " fill="#4CAF21" transform="translate(144,202)"/>
<path d="M0 0 C0.825 0.144375 1.65 0.28875 2.5 0.4375 C6.32686278 1.05253152 10.15216707 1.53560637 14 2 C13.67 3.65 13.34 5.3 13 7 C8.50202887 5.31326082 4.27113698 3.18326108 0 1 C0 0.67 0 0.34 0 0 Z " fill="#45A21B" transform="translate(76,195)"/>
<path d="M0 0 C0.33 1.32 0.66 2.64 1 4 C1.33 3.34 1.66 2.68 2 2 C2.99 2.33 3.98 2.66 5 3 C2.7629196 6.3556206 2.57482962 6.19278041 -1 7 C-1.33 7.66 -1.66 8.32 -2 9 C-2.66 9 -3.32 9 -4 9 C-4.66 10.32 -5.32 11.64 -6 13 C-6 9.32965255 -4.9247108 7.9000569 -3 4.8125 C-2.443125 3.91144531 -1.88625 3.01039063 -1.3125 2.08203125 C-0.6628125 1.05142578 -0.6628125 1.05142578 0 0 Z " fill="#49A822" transform="translate(250,190)"/>
<path d="M0 0 C1.63542086 3.20970449 3.14031997 6.46807572 4.625 9.75 C5.07101563 10.73484375 5.51703125 11.7196875 5.9765625 12.734375 C6.31429687 13.48203125 6.65203125 14.2296875 7 15 C6.01 15 5.02 15 4 15 C2.99515796 13.04414675 1.99626195 11.08523763 1 9.125 C0.443125 8.03445312 -0.11375 6.94390625 -0.6875 5.8203125 C-2 3 -2 3 -2 1 C-1.34 0.67 -0.68 0.34 0 0 Z " fill="#4CA91D" transform="translate(41,239)"/>
<path d="M0 0 C-0.66 1.98 -1.32 3.96 -2 6 C-3.98 6.33 -5.96 6.66 -8 7 C-8.33 5.68 -8.66 4.36 -9 3 C-3.375 0 -3.375 0 0 0 Z " fill="#51B427" transform="translate(291,41)"/>
<path d="M0 0 C1.32 0.66 2.64 1.32 4 2 C2.25 7.75 2.25 7.75 0 10 C-1.125 6.6875 -1.125 6.6875 -2 3 C-1.34 2.01 -0.68 1.02 0 0 Z " fill="#49B019" transform="translate(195,229)"/>
<path d="M0 0 C2.475 0.99 2.475 0.99 5 2 C3.515 4.475 3.515 4.475 2 7 C1.01 6.67 0.02 6.34 -1 6 C-1.33 6.66 -1.66 7.32 -2 8 C-2.99 6.68 -3.98 5.36 -5 4 C-4.34 3.67 -3.68 3.34 -3 3 C-2.01 3.33 -1.02 3.66 0 4 C0 2.68 0 1.36 0 0 Z " fill="#41AC14" transform="translate(146,303)"/>
<path d="M0 0 C0.66 1.32 1.32 2.64 2 4 C1.34 4.556875 0.68 5.11375 0 5.6875 C-2.25492211 7.84062308 -2.25492211 7.84062308 -2.25 10.75 C-2.1675 11.4925 -2.085 12.235 -2 13 C-3.65 13.33 -5.3 13.66 -7 14 C-5.23570801 9.02790438 -2.6060834 4.56561939 0 0 Z " fill="#4EAF26" transform="translate(238,211)"/>
<path d="M0 0 C1.98 0.66 3.96 1.32 6 2 C1.25 6.875 1.25 6.875 -1 8 C-1.66 6.35 -2.32 4.7 -3 3 C-2.01 2.01 -1.02 1.02 0 0 Z " fill="#48AE1C" transform="translate(276,121)"/>
<path d="M0 0 C-3.3 2.97 -6.6 5.94 -10 9 C-10.33 8.34 -10.66 7.68 -11 7 C-10.67 6.34 -10.34 5.68 -10 5 C-9.34 5 -8.68 5 -8 5 C-8 4.01 -8 3.02 -8 2 C-7.34 2 -6.68 2 -6 2 C-6 1.34 -6 0.68 -6 0 C-4 -1 -4 -1 0 0 Z " fill="#42A518" transform="translate(340,246)"/>
<path d="M0 0 C3.59478807 3.32850747 6.22364768 6.98971331 9 11 C8.67 11.66 8.34 12.32 8 13 C6.68 13 5.36 13 4 13 C4.0825 12.2575 4.165 11.515 4.25 10.75 C3.92614302 7.18757321 2.50327173 6.42504449 0 4 C0 2.68 0 1.36 0 0 Z " fill="#4CA722" transform="translate(109,232)"/>
<path d="M0 0 C3.37503669 1.1858237 5.64722731 2.27573689 8 5 C6.88625 4.9071875 6.88625 4.9071875 5.75 4.8125 C2.54616994 5.03094296 1.35968744 5.90250005 -1 8 C-1.33 6.68 -1.66 5.36 -2 4 C-1.34 4 -0.68 4 0 4 C0 2.68 0 1.36 0 0 Z " fill="#4DAF20" transform="translate(106,168)"/>
<path d="M0 0 C0.33 0 0.66 0 1 0 C1.12117188 0.78246094 1.24234375 1.56492188 1.3671875 2.37109375 C1.53476562 3.38300781 1.70234375 4.39492187 1.875 5.4375 C2.03742187 6.44683594 2.19984375 7.45617187 2.3671875 8.49609375 C2.57601563 9.32238281 2.78484375 10.14867187 3 11 C3.66 11.33 4.32 11.66 5 12 C4.25 16.75 4.25 16.75 2 19 C0.82706111 12.6221448 -0.29530838 6.49678438 0 0 Z " fill="#4EAA29" transform="translate(19,155)"/>
<path d="M0 0 C1.89786929 0.76580691 3.79321244 1.53787577 5.6875 2.3125 C6.74324219 2.74175781 7.79898438 3.17101562 8.88671875 3.61328125 C11.7537809 4.89032901 14.35090386 6.32404122 17 8 C15 9 15 9 12.79296875 8.328125 C3.23741007 4.37410072 3.23741007 4.37410072 0 2 C0 1.34 0 0.68 0 0 Z " fill="#55A92E" transform="translate(89,159)"/>
<path d="M0 0 C1.32 0 2.64 0 4 0 C4.71614583 1.72526042 5.43229167 3.45052083 6.1484375 5.17578125 C7.06806692 7.26533932 7.06806692 7.26533932 9 10 C8.67 10.99 8.34 11.98 8 13 C6.66388095 11.0226631 5.33100742 9.04327287 4 7.0625 C3.6184375 6.49853516 3.236875 5.93457031 2.84375 5.35351562 C0 1.11328125 0 1.11328125 0 0 Z " fill="#4FA424" transform="translate(140,255)"/>
<path d="M0 0 C1.30138849 2.60277697 1.4217343 4.11814893 1 7 C-1.3125 8.6875 -1.3125 8.6875 -4 10 C-4.99 10.66 -5.98 11.32 -7 12 C-5.44298069 7.32894208 -2.91552627 3.91294315 0 0 Z " fill="#4BAD21" transform="translate(271,158)"/>
<path d="M0 0 C0.66 0.33 1.32 0.66 2 1 C1.505 1.928125 1.01 2.85625 0.5 3.8125 C-1.21289852 6.86527516 -1.21289852 6.86527516 -1 10 C-2.65 10.33 -4.3 10.66 -6 11 C-4.54955729 6.89041233 -2.48889248 3.56741255 0 0 Z " fill="#4EAD25" transform="translate(205,108)"/>
<path d="M0 0 C1.67542976 0.28604898 3.34385343 0.61781233 5 1 C3.55049545 4.7910119 1.84827434 8.3874638 0 12 C-0.66 11.01 -1.32 10.02 -2 9 C-1.34 9 -0.68 9 0 9 C0.33 6.69 0.66 4.38 1 2 C0.34 1.67 -0.32 1.34 -1 1 C-0.67 0.67 -0.34 0.34 0 0 Z " fill="#4CAB20" transform="translate(201,217)"/>
<path d="M0 0 C2.99220268 1.36370299 5.29026529 2.94908083 7.75 5.125 C8.67039062 5.93324219 8.67039062 5.93324219 9.609375 6.7578125 C10.06828125 7.16773438 10.5271875 7.57765625 11 8 C7.61976483 8 5.16531063 7.12544378 2 6 C2 5.01 2 4.02 2 3 C1.34 2.67 0.68 2.34 0 2 C0 1.34 0 0.68 0 0 Z " fill="#429A18" transform="translate(74,197)"/>
<path d="M0 0 C0 3.566745 -0.63691955 4.10543677 -2.9375 6.6875 C-3.48277344 7.31011719 -4.02804688 7.93273437 -4.58984375 8.57421875 C-5.05519531 9.04472656 -5.52054688 9.51523438 -6 10 C-6.33 10 -6.66 10 -7 10 C-7 8.35 -7 6.7 -7 5 C-6.01 5 -5.02 5 -4 5 C-4 3.68 -4 2.36 -4 1 C-2.68 0.67 -1.36 0.34 0 0 Z " fill="#4FA824" transform="translate(247,156)"/>
<path d="M0 0 C0.33 0 0.66 0 1 0 C0.67 2.97 0.34 5.94 0 9 C-0.99 9.33 -1.98 9.66 -3 10 C-3 10.99 -3 11.98 -3 13 C-3.66 13 -4.32 13 -5 13 C-4.54554036 11.58208592 -4.08625056 10.16571954 -3.625 8.75 C-3.24214844 7.56664062 -3.24214844 7.56664062 -2.8515625 6.359375 C-2.04826333 4.13372042 -1.10288338 2.09068328 0 0 Z " fill="#52AC2A" transform="translate(196,123)"/>
<path d="M0 0 C0.33 0.99 0.66 1.98 1 3 C1.66 3.33 2.32 3.66 3 4 C0.36 5.98 -2.28 7.96 -5 10 C-5 6.60406522 -4.47834052 5.93380119 -2.5 3.3125 C-2.0359375 2.68988281 -1.571875 2.06726563 -1.09375 1.42578125 C-0.7328125 0.95527344 -0.371875 0.48476562 0 0 Z " fill="#4FA928" transform="translate(213,96)"/>
<path d="M0 0 C-0.99 0.33 -1.98 0.66 -3 1 C-2.67 2.32 -2.34 3.64 -2 5 C-3.98 5 -5.96 5 -8 5 C-8 4.34 -8 3.68 -8 3 C-9.32 2.67 -10.64 2.34 -12 2 C-7.8803623 0.70756464 -4.33168317 -0.26252625 0 0 Z " fill="#51B126" transform="translate(339,26)"/>
<path d="M0 0 C0.33 0.66 0.66 1.32 1 2 C-0.3984375 4.8203125 -0.3984375 4.8203125 -2.375 8.125 C-3.02210938 9.22070312 -3.66921875 10.31640625 -4.3359375 11.4453125 C-4.88507813 12.28835937 -5.43421875 13.13140625 -6 14 C-6.33 14 -6.66 14 -7 14 C-7 12.35 -7 10.7 -7 9 C-6.34 9 -5.68 9 -5 9 C-5 8.01 -5 7.02 -5 6 C-4.34 6 -3.68 6 -3 6 C-2.690625 5.195625 -2.38125 4.39125 -2.0625 3.5625 C-1 1 -1 1 0 0 Z " fill="#45A020" transform="translate(370,202)"/>
<path d="M0 0 C-1.91135386 3.53600465 -3.62642766 5.78972846 -7 8 C-6.814375 7.21625 -6.62875 6.4325 -6.4375 5.625 C-5.74037734 3.02910225 -5.74037734 3.02910225 -7 1 C-4.53721199 -0.231394 -2.7204945 -0.07159196 0 0 Z " fill="#49A81F" transform="translate(257,146)"/>
<path d="M0 0 C1.07349791 4.29399165 0.79682816 5.19495213 -1 9 C-2.32 8.67 -3.64 8.34 -5 8 C-3.35 5.36 -1.7 2.72 0 0 Z " fill="#46AB19" transform="translate(284,141)"/>
<path d="M0 0 C0.78375 0.04125 1.5675 0.0825 2.375 0.125 C1.39933888 1.29459987 0.419375 2.46061177 -0.5625 3.625 C-1.10777344 4.2746875 -1.65304687 4.924375 -2.21484375 5.59375 C-2.68019531 6.0990625 -3.14554687 6.604375 -3.625 7.125 C-3.955 7.125 -4.285 7.125 -4.625 7.125 C-4.75 4.75 -4.75 4.75 -4.625 2.125 C-2.625 0.125 -2.625 0.125 0 0 Z " fill="#49A823" transform="translate(262.625,137.875)"/>
<path d="M0 0 C0.33 0 0.66 0 1 0 C1.43177893 6.26079448 0.92739438 9.09075703 -3 14 C-4 12 -4 12 -3.22265625 9.1796875 C-2.83980469 8.08914063 -2.45695313 6.99859375 -2.0625 5.875 C-1.68222656 4.77929688 -1.30195313 3.68359375 -0.91015625 2.5546875 C-0.60980469 1.71164062 -0.30945313 0.86859375 0 0 Z " fill="#4CA727" transform="translate(202,289)"/>
<path d="M0 0 C2 3 2 3 1.8125 6 C0.99790027 9.00775285 0.4044979 10.11821903 -2 12 C-1 3.42857143 -1 3.42857143 0 0 Z " fill="#459B33" transform="translate(189,335)"/>
<path d="M0 0 C2.97069541 2.54631035 4.4775751 5.42230149 6 9 C5.67 9.66 5.34 10.32 5 11 C4.34 10.67 3.68 10.34 3 10 C3 8.68 3 7.36 3 6 C2.01 5.67 1.02 5.34 0 5 C0 3.35 0 1.7 0 0 Z " fill="#4DA722" transform="translate(134,272)"/>
<path d="M0 0 C0 3.38878512 -0.64361198 4.39757217 -2.4375 7.1875 C-2.88996094 7.90292969 -3.34242188 8.61835938 -3.80859375 9.35546875 C-4.20175781 9.89816406 -4.59492188 10.44085938 -5 11 C-5.33 11 -5.66 11 -6 11 C-6 9.35 -6 7.7 -6 6 C-4.68 5.34 -3.36 4.68 -2 4 C-2 3.01 -2 2.02 -2 1 C-1.34 0.67 -0.68 0.34 0 0 Z " fill="#49A126" transform="translate(225,185)"/>
<path d="M0 0 C0.33 0 0.66 0 1 0 C1 1.98 1 3.96 1 6 C1.66 6.33 2.32 6.66 3 7 C3.75 9.9375 3.75 9.9375 4 13 C3.34 13.66 2.68 14.32 2 15 C0.2520497 9.75614911 -0.19392201 5.52677733 0 0 Z " fill="#39AF0E" transform="translate(19,147)"/>
<path d="M0 0 C0.66 0.66 1.32 1.32 2 2 C1.9765625 4.8203125 1.9765625 4.8203125 1.625 8.125 C1.51414062 9.22070312 1.40328125 10.31640625 1.2890625 11.4453125 C1.19367188 12.28835937 1.09828125 13.13140625 1 14 C0.67 14 0.34 14 0 14 C-0.19393875 11.85473901 -0.37998676 9.70876323 -0.5625 7.5625 C-0.71912109 5.77005859 -0.71912109 5.77005859 -0.87890625 3.94140625 C-0.91886719 2.97074219 -0.95882813 2.00007813 -1 1 C-0.67 0.67 -0.34 0.34 0 0 Z " fill="#46B71C" transform="translate(393,116)"/>
<path d="M0 0 C0.86625 0.3403125 0.86625 0.3403125 1.75 0.6875 C1.42 2.0075 1.09 3.3275 0.75 4.6875 C-1.56 4.0275 -3.87 3.3675 -6.25 2.6875 C-2.80384615 -0.38942308 -2.80384615 -0.38942308 0 0 Z " fill="#48AC1B" transform="translate(102.25,297.3125)"/>
<path d="M0 0 C1.98 0 3.96 0 6 0 C6.33 0.99 6.66 1.98 7 3 C6.01 4.485 6.01 4.485 5 6 C3.35 4.02 1.7 2.04 0 0 Z " fill="#49AD1C" transform="translate(105,214)"/>
<path d="M0 0 C1.42944945 2.35438733 2.08661261 3.48032433 1.625 6.25 C1.41875 6.8275 1.2125 7.405 1 8 C0.34 6.68 -0.32 5.36 -1 4 C-1.66 4 -2.32 4 -3 4 C-2.67 3.01 -2.34 2.02 -2 1 C-1.34 0.67 -0.68 0.34 0 0 Z " fill="#4FC220" transform="translate(151,311)"/>
<path d="M0 0 C1.66666667 1.66666667 3.33333333 3.33333333 5 5 C5.8971875 5.8353125 5.8971875 5.8353125 6.8125 6.6875 C8 8 8 8 8 10 C7.34 10 6.68 10 6 10 C6 9.34 6 8.68 6 8 C5.01 8 4.02 8 3 8 C0 2.25 0 2.25 0 0 Z " fill="#4A9F21" transform="translate(99,220)"/>
<path d="M0 0 C0.33 0.99 0.66 1.98 1 3 C1.66 3 2.32 3 3 3 C2.67 3.99 2.34 4.98 2 6 C1.01 6 0.02 6 -1 6 C-1 6.66 -1 7.32 -1 8 C-1.66 8 -2.32 8 -3 8 C-1.125 2.25 -1.125 2.25 0 0 Z " fill="#4BAD23" transform="translate(242,203)"/>
<path d="M0 0 C2.64465038 3.1254959 3.84414715 6.08788267 5 10 C2.5 8.9375 2.5 8.9375 0 7 C-0.3125 3.3125 -0.3125 3.3125 0 0 Z " fill="#49A626" transform="translate(140,283)"/>
<path d="M0 0 C3.31996462 2.25283313 5.58443874 4.80800833 8 8 C4.06326356 6.68775452 1.77280706 5.08089673 -1 2 C-0.67 1.34 -0.34 0.68 0 0 Z " fill="#48A61B" transform="translate(77,286)"/>
<path d="M0 0 C0.66 0.99 1.32 1.98 2 3 C0.35 4.65 -1.3 6.3 -3 8 C-3.66 7.67 -4.32 7.34 -5 7 C-1.125 1.125 -1.125 1.125 0 0 Z " fill="#47AC1E" transform="translate(314,107)"/>
<path d="M0 0 C0.66 0.66 1.32 1.32 2 2 C1.8125 4.0625 1.8125 4.0625 1 6 C0.01 6.33 -0.98 6.66 -2 7 C-2 3 -2 3 0 0 Z " fill="#49B21C" transform="translate(206,283)"/>
<path d="M0 0 C3.63 0.66 7.26 1.32 11 2 C11 2.33 11 2.66 11 3 C6.545 3.495 6.545 3.495 2 4 C1.34 2.68 0.68 1.36 0 0 Z " fill="#54AE33" transform="translate(52,148)"/>
<path d="M0 0 C0.99 0 1.98 0 3 0 C2.67 1.65 2.34 3.3 2 5 C1.01 5 0.02 5 -1 5 C-0.67 3.35 -0.34 1.7 0 0 Z " fill="#48BF15" transform="translate(186,239)"/>
<path d="M0 0 C1.46015291 0.28241641 2.91809793 0.57626614 4.375 0.875 C5.18710938 1.03742188 5.99921875 1.19984375 6.8359375 1.3671875 C9 2 9 2 11 4 C9.54054712 3.91291331 8.08234132 3.80473093 6.625 3.6875 C5.81289062 3.62949219 5.00078125 3.57148438 4.1640625 3.51171875 C2 3 2 3 0 0 Z " fill="#51AD2F" transform="translate(74,154)"/>
<path d="M0 0 C0.66 0 1.32 0 2 0 C3.60355101 3.50776784 4.22036864 6.14354879 4 10 C1.7448078 7.7448078 1.02276532 5.9952413 0 3 C0 2.01 0 1.02 0 0 Z " fill="#44A421" transform="translate(35,230)"/>
<path d="M0 0 C0.33 0.66 0.66 1.32 1 2 C-0.32 3.65 -1.64 5.3 -3 7 C-3.33 5.02 -3.66 3.04 -4 1 C-2.68 0.67 -1.36 0.34 0 0 Z " fill="#4AA220" transform="translate(214,202)"/>
<path d="M0 0 C1.32 0.33 2.64 0.66 4 1 C4 1.66 4 2.32 4 3 C2.35 3.66 0.7 4.32 -1 5 C-1.33 3.68 -1.66 2.36 -2 1 C-1.67 1.66 -1.34 2.32 -1 3 C-0.67 2.01 -0.34 1.02 0 0 Z " fill="#46AE1B" transform="translate(306,100)"/>
<path d="M0 0 C0.66 0.33 1.32 0.66 2 1 C1.67 1.66 1.34 2.32 1 3 C1.66 3.66 2.32 4.32 3 5 C1.68 5.33 0.36 5.66 -1 6 C-1 5.34 -1 4.68 -1 4 C-1.99 3.67 -2.98 3.34 -4 3 C-2.68 2.01 -1.36 1.02 0 0 Z " fill="#50B024" transform="translate(260,55)"/>
<path d="" fill="#FFFFFF" transform="translate(0,0)"/>
<path d="" fill="#FFFFFF" transform="translate(0,0)"/>
<path d="" fill="#FFFFFF" transform="translate(0,0)"/>
<path d="" fill="#FFFFFF" transform="translate(0,0)"/>
<path d="" fill="#FFFFFF" transform="translate(0,0)"/>
<path d="" fill="#FFFFFF" transform="translate(0,0)"/>
<path d="" fill="#FFFFFF" transform="translate(0,0)"/>
<path d="" fill="#FFFFFF" transform="translate(0,0)"/>
<path d="" fill="#FFFFFF" transform="translate(0,0)"/>
<path d="" fill="#FFFFFF" transform="translate(0,0)"/>
<path d="" fill="#FFFFFF" transform="translate(0,0)"/>
<path d="" fill="#FFFFFF" transform="translate(0,0)"/>
<path d="" fill="#FFFFFF" transform="translate(0,0)"/>
<path d="" fill="#FFFFFF" transform="translate(0,0)"/>
<path d="" fill="#FFFFFF" transform="translate(0,0)"/>
<path d="" fill="#FFFFFF" transform="translate(0,0)"/>
<path d="" fill="#FFFFFF" transform="translate(0,0)"/>
<path d="" fill="#FFFFFF" transform="translate(0,0)"/>
<path d="" fill="#FFFFFF" transform="translate(0,0)"/>
<path d="" fill="#FFFFFF" transform="translate(0,0)"/>
<path d="" fill="#FFFFFF" transform="translate(0,0)"/>
<path d="" fill="#FFFFFF" transform="translate(0,0)"/>
<path d="" fill="#FFFFFF" transform="translate(0,0)"/>
<path d="" fill="#FFFFFE" transform="translate(0,0)"/>
<path d="" fill="#FFFFFF" transform="translate(0,0)"/>
<path d="" fill="#FFFFFF" transform="translate(0,0)"/>
<path d="" fill="#FFFFFF" transform="translate(0,0)"/>
<path d="" fill="#FFFFFF" transform="translate(0,0)"/>
<path d="" fill="#FFFFFF" transform="translate(0,0)"/>
<path d="" fill="#FFFFFF" transform="translate(0,0)"/>
<path d="" fill="#FFFFFF" transform="translate(0,0)"/>
<path d="" fill="#FFFFFF" transform="translate(0,0)"/>
<path d="" fill="#FFFFFF" transform="translate(0,0)"/>
<path d="" fill="#FFFFFF" transform="translate(0,0)"/>
<path d="" fill="#FFFFFF" transform="translate(0,0)"/>
<path d="" fill="#FFFFFF" transform="translate(0,0)"/>
<path d="" fill="#FFFFFF" transform="translate(0,0)"/>
<path d="" fill="#FFFFFF" transform="translate(0,0)"/>
<path d="" fill="#FFFFFF" transform="translate(0,0)"/>
<path d="" fill="#FFFFFF" transform="translate(0,0)"/>
<path d="" fill="#FFFFFF" transform="translate(0,0)"/>
<path d="" fill="#FFFFFF" transform="translate(0,0)"/>
<path d="" fill="#FFFFFF" transform="translate(0,0)"/>
<path d="" fill="#FFFFFF" transform="translate(0,0)"/>
<path d="" fill="#FFFFFF" transform="translate(0,0)"/>
<path d="" fill="#FFFFFF" transform="translate(0,0)"/>
<path d="" fill="#FFFFFF" transform="translate(0,0)"/>
<path d="" fill="#FFFFFF" transform="translate(0,0)"/>
<path d="" fill="#FFFFFF" transform="translate(0,0)"/>
<path d="" fill="#FFFFFF" transform="translate(0,0)"/>
<path d="" fill="#FFFFFF" transform="translate(0,0)"/>
</svg>
