<?xml version="1.0" encoding="UTF-8"?>
<svg viewBox="0 0 883 282" version="1.1" xmlns="http://www.w3.org/2000/svg" width="883" height="282">
<path d="M0 0 C1.94566951 3.47547073 2.07637127 5.12506344 1 9 C0.34 9 -0.32 9 -1 9 C-0.505 10.485 -0.505 10.485 0 12 C0.1875 15.5625 0.1875 15.5625 0 19 C-0.66 19.66 -1.32 20.32 -2 21 C-2.20496073 23.14426283 -2.20496073 23.14426283 -2.0625 25.5 C-1.90181269 29.80362538 -1.90181269 29.80362538 -3 32 C-3.66 32 -4.32 32 -5 32 C-4.835 32.515625 -4.67 33.03125 -4.5 33.5625 C-3.38626129 38.99197619 -3.9793524 42.95973295 -6 48 C-6.333221 49.72164182 -6.62377496 51.45199639 -6.875 53.1875 C-8.87104284 64.67242342 -14.51883833 76.35729605 -21 86 C-21.66 86 -22.32 86 -23 86 C-23 86.66 -23 87.32 -23 88 C-23.66 88 -24.32 88 -25 88 C-25 88.66 -25 89.32 -25 90 C-25.66 90 -26.32 90 -27 90 C-27 90.66 -27 91.32 -27 92 C-39.08847836 103.89810862 -53.62599333 110.03870027 -70.5 110.0625 C-72.00006131 110.0466861 -73.50011039 110.0276619 -75 110 C-75.226875 110.680625 -75.45375 111.36125 -75.6875 112.0625 C-76.80490482 114.5633584 -77.87609926 116.28187955 -79.5 118.4375 C-81.319251 120.86848744 -82.13495271 122.40485812 -83.125 125.375 C-83.41375 126.24125 -83.7025 127.1075 -84 128 C-84.99 128.33 -85.98 128.66 -87 129 C-87.33 129.99 -87.66 130.98 -88 132 C-88.66 132 -89.32 132 -90 132 C-90.33 130.68 -90.66 129.36 -91 128 C-90.34 128 -89.68 128 -89 128 C-89.144375 127.443125 -89.28875 126.88625 -89.4375 126.3125 C-90.02769128 123.88615805 -90.523429 121.45093655 -91 119 C-89.515 118.505 -89.515 118.505 -88 118 C-88.04125 117.278125 -88.0825 116.55625 -88.125 115.8125 C-87.98913607 112.75556157 -87.36326842 110.72653683 -86 108 C-85.01 107.505 -85.01 107.505 -84 107 C-83.34791334 105.04374002 -82.70178699 103.08548011 -82.0625 101.125 C-81.12677145 98.37285722 -80.1064511 95.68709552 -79 93 C-78.34 93 -77.68 93 -77 93 C-76.9175 92.360625 -76.835 91.72125 -76.75 91.0625 C-75.70479628 86.79458483 -73.85908174 82.96892333 -72 79 C-71.34 79 -70.68 79 -70 79 C-69.82670166 78.13169556 -69.82670166 78.13169556 -69.64990234 77.24584961 C-68.94938882 74.82510435 -67.98968021 73.1634427 -66.6015625 71.06640625 C-66.12203125 70.33486328 -65.6425 69.60332031 -65.1484375 68.84960938 C-64.64570313 68.09486328 -64.14296875 67.34011719 -63.625 66.5625 C-62.6373211 65.06426313 -61.65032403 63.56557652 -60.6640625 62.06640625 C-60.19766357 61.36056396 -59.73126465 60.65472168 -59.25073242 59.92749023 C-58.24266322 58.37396567 -57.28317067 56.7889801 -56.33984375 55.1953125 C-55.02335337 53.03826412 -53.60340762 51.20848182 -51.9375 49.3125 C-51.43089844 48.73113281 -50.92429688 48.14976563 -50.40234375 47.55078125 C-49.30287613 46.33493545 -48.15911821 45.15911821 -47 44 C-47 43.01 -47 42.02 -47 41 C-47.66 41 -48.32 41 -49 41 C-49 41.66 -49 42.32 -49 43 C-49.9590625 43.1546875 -49.9590625 43.1546875 -50.9375 43.3125 C-51.618125 43.539375 -52.29875 43.76625 -53 44 C-53.33 44.99 -53.66 45.98 -54 47 C-56.4375 49.6875 -56.4375 49.6875 -59 52 C-59.66 52 -60.32 52 -61 52 C-61 52.66 -61 53.32 -61 54 C-61.66 54 -62.32 54 -63 54 C-63.226875 54.515625 -63.45375 55.03125 -63.6875 55.5625 C-65.48217618 58.89547005 -67.49965015 62.14703671 -70 65 C-70.66 65 -71.32 65 -72 65 C-72.0825 65.7425 -72.165 66.485 -72.25 67.25 C-73.15282452 70.56035658 -74.56970107 71.64334649 -77 74 C-78.20450304 76.55183404 -78.20450304 76.55183404 -79 79 C-79.495 79.99 -79.495 79.99 -80 81 C-80.66 81 -81.32 81 -82 81 C-82.103125 82.051875 -82.20625 83.10375 -82.3125 84.1875 C-82.97949332 87.88628113 -83.74990008 90.02986811 -86 93 C-86.66 93 -87.32 93 -88 93 C-88 93.99 -88 94.98 -88 96 C-88.66 96 -89.32 96 -90 96 C-90.66 94.35 -91.32 92.7 -92 91 C-92.33 91 -92.66 91 -93 91 C-95.03542979 69.51894635 -94.01366688 49.54652408 -80 32 C-79.42765625 31.25234375 -78.8553125 30.5046875 -78.265625 29.734375 C-63.29945335 11.44238742 -39.21566636 3.29243933 -16.4375 0.3125 C-10.97300168 -0.19724798 -5.48197864 -0.08348191 0 0 Z M-88 119 C-87 122 -87 122 -87 122 Z " fill="#43B311" transform="translate(209,71)"/>
<path d="M0 0 C0 0.66 0 1.32 0 2 C0.99 2.495 0.99 2.495 2 3 C2.495 4.485 2.495 4.485 3 6 C3.66 6 4.32 6 5 6 C6.32421875 7.609375 6.32421875 7.609375 7.6875 9.75 C8.14511719 10.44609375 8.60273437 11.1421875 9.07421875 11.859375 C10 14 10 14 9.88671875 16.15625 C9 18 9 18 7.2578125 19.046875 C6.55398438 19.27890625 5.85015625 19.5109375 5.125 19.75 C4.07699219 20.11351562 4.07699219 20.11351562 3.0078125 20.484375 C1 21 1 21 -2 21 C-2.33 21.66 -2.66 22.32 -3 23 C-5.25 23.25 -5.25 23.25 -8 23 C-10.3125 21 -10.3125 21 -12 19 C-11.505 18.505 -11.505 18.505 -11 18 C-11.66 17.67 -12.32 17.34 -13 17 C-13 16.34 -13 15.68 -13 15 C-13.66 15 -14.32 15 -15 15 C-15.433125 14.54625 -15.86625 14.0925 -16.3125 13.625 C-20.73079724 9.3703434 -26.43274954 9.51626735 -32.25512695 9.49145508 C-39.98427714 9.72086555 -44.13144461 13.13144461 -49.375 18.375 C-53.45504159 24.96583642 -55.54542819 32.23022103 -55 40 C-53.71287151 44.20733306 -51.97675888 48.07563798 -50 52 C-49.69707031 52.73347656 -49.39414062 53.46695313 -49.08203125 54.22265625 C-47.69645955 56.49859532 -46.43737952 56.98927015 -44 58 C-43.34902344 58.35320312 -42.69804688 58.70640625 -42.02734375 59.0703125 C-35.12122729 62.5556423 -28.63895151 63.51200222 -21.18359375 61.08203125 C-16.84348598 59.12993038 -14.48127012 57.75021518 -11.875 53.6875 C-11.58625 52.800625 -11.2975 51.91375 -11 51 C-10.34 51 -9.68 51 -9 51 C-9 50.34 -9 49.68 -9 49 C-4.17639811 48.80705592 -0.50353262 49.24252386 4 51 C4 51.66 4 52.32 4 53 C6.31 53.33 8.62 53.66 11 54 C10.42415568 56.38564077 9.77772405 58.66682784 9 61 C8.34 61 7.68 61 7 61 C6.9175 61.556875 6.835 62.11375 6.75 62.6875 C5.75290104 65.76188846 4.20770546 67.66242952 2 70 C1.01 70 0.02 70 -1 70 C-1.495 71.485 -1.495 71.485 -2 73 C-12.78289861 80.8946222 -26.14180691 83.13566552 -39.1875 81.375 C-48.78457517 79.47071833 -57.58385159 74.3224538 -65 68 C-65.33 67.01 -65.66 66.02 -66 65 C-66.66 64.67 -67.32 64.34 -68 64 C-68 63.01 -68 62.02 -68 61 C-68.66 61 -69.32 61 -70 61 C-70.81974263 58.96123051 -71.6304807 56.91883925 -72.4375 54.875 C-72.88996094 53.73804688 -73.34242188 52.60109375 -73.80859375 51.4296875 C-78.58690697 37.67441207 -76.15532362 22.89686854 -70 10 C-69.34 10 -68.68 10 -68 10 C-67.731875 9.4225 -67.46375 8.845 -67.1875 8.25 C-65.97070811 5.94449957 -64.69666121 3.97943808 -63 2 C-62.34 2 -61.68 2 -61 2 C-60.67 1.01 -60.34 0.02 -60 -1 C-57.84088535 -2.33165175 -55.77501344 -3.4678516 -53.5 -4.5625 C-52.86143066 -4.8726001 -52.22286133 -5.1827002 -51.56494141 -5.50219727 C-34.61835802 -13.50011096 -15.05895502 -11.2602997 0 0 Z " fill="#0AB540" transform="translate(656,105)"/>
<path d="M0 0 C0.78052734 -0.00386719 1.56105469 -0.00773437 2.36523438 -0.01171875 C8.18414502 -0.00167749 8.18414502 -0.00167749 10.4375 1.125 C10.4375 10.365 10.4375 19.605 10.4375 29.125 C14.7275 27.805 19.0175 26.485 23.4375 25.125 C30.0096817 24.21849218 35.42670155 26.6902462 41.4375 29.125 C41.4375 29.785 41.4375 30.445 41.4375 31.125 C42.05625 31.228125 42.675 31.33125 43.3125 31.4375 C45.4375 32.125 45.4375 32.125 47.4375 35.125 C47.7675 35.455 48.0975 35.785 48.4375 36.125 C50.73895732 40.2963914 51.54956574 43.96720056 51.64282227 48.70996094 C51.6727401 50.06090851 51.6727401 50.06090851 51.70326233 51.43914795 C51.71997482 52.40282288 51.73668732 53.3664978 51.75390625 54.359375 C51.77468735 55.35253723 51.79546844 56.34569946 51.81687927 57.36895752 C51.88219749 60.53756882 51.94117739 63.70626211 52 66.875 C52.04320207 69.02474802 52.08681691 71.17448778 52.13085938 73.32421875 C52.23786071 78.59105949 52.33965991 83.85798155 52.4375 89.125 C51.00471545 89.46224559 49.57071819 89.79434167 48.13623047 90.12426758 C46.93859573 90.40250114 46.93859573 90.40250114 45.71676636 90.68635559 C42.89261562 91.2298629 40.41204062 91.15527083 37.5625 90.8125 C36.65757812 90.71324219 35.75265625 90.61398438 34.8203125 90.51171875 C32.4375 90.125 32.4375 90.125 29.4375 89.125 C29.46106567 87.27769287 29.46106567 87.27769287 29.48510742 85.39306641 C29.53930589 80.83470165 29.57381322 76.2763655 29.60229492 71.71777344 C29.61740462 69.74278987 29.63789328 67.76783996 29.66381836 65.79296875 C29.70010619 62.95824894 29.71720416 60.12397174 29.73046875 57.2890625 C29.74595261 56.40256012 29.76143646 55.51605774 29.77738953 54.60269165 C29.77772942 53.371642 29.77772942 53.371642 29.77807617 52.11572266 C29.78473801 51.39180328 29.79139984 50.66788391 29.79826355 49.92202759 C29.57339586 47.70528018 29.57339586 47.70528018 26.4375 46.125 C26.4375 45.465 26.4375 44.805 26.4375 44.125 C20.15823235 43.59763269 20.15823235 43.59763269 14.5 46 C13.819375 46.70125 13.13875 47.4025 12.4375 48.125 C11.7775 48.785 11.1175 49.445 10.4375 50.125 C10.26210564 53.06596737 10.20617625 55.91153349 10.2421875 58.8515625 C10.24643234 60.14578629 10.24643234 60.14578629 10.25076294 61.46615601 C10.26197667 64.2275772 10.28708316 66.9886765 10.3125 69.75 C10.32252827 71.61978699 10.33165438 73.48957905 10.33984375 75.359375 C10.36191988 79.94804109 10.39645766 84.53646593 10.4375 89.125 C6.56979545 90.41423485 2.90312684 90.27005706 -1.125 90.25 C-1.90552734 90.25386719 -2.68605469 90.25773437 -3.49023438 90.26171875 C-9.30914502 90.25167749 -9.30914502 90.25167749 -11.5625 89.125 C-11.5625 60.085 -11.5625 31.045 -11.5625 1.125 C-7.69479545 -0.16423485 -4.02812684 -0.02005706 0 0 Z M-10.5625 6.125 C-10.5625 10.085 -10.5625 14.045 -10.5625 18.125 C-10.2325 18.125 -9.9025 18.125 -9.5625 18.125 C-9.5625 14.165 -9.5625 10.205 -9.5625 6.125 C-9.8925 6.125 -10.2225 6.125 -10.5625 6.125 Z M-10.5625 19.125 C-9.5625 22.125 -9.5625 22.125 -9.5625 22.125 Z M-10.5625 24.125 C-9.5625 27.125 -9.5625 27.125 -9.5625 27.125 Z M-10.5625 28.125 C-10.5625 40.995 -10.5625 53.865 -10.5625 67.125 C-10.2325 67.125 -9.9025 67.125 -9.5625 67.125 C-9.5625 54.255 -9.5625 41.385 -9.5625 28.125 C-9.8925 28.125 -10.2225 28.125 -10.5625 28.125 Z M-10.5625 68.125 C-9.5625 71.125 -9.5625 71.125 -9.5625 71.125 Z M-10.5625 73.125 C-10.5625 76.755 -10.5625 80.385 -10.5625 84.125 C-10.2325 84.125 -9.9025 84.125 -9.5625 84.125 C-9.5625 80.495 -9.5625 76.865 -9.5625 73.125 C-9.8925 73.125 -10.2225 73.125 -10.5625 73.125 Z M31.4375 85.125 C32.4375 87.125 32.4375 87.125 32.4375 87.125 Z " fill="#1B202B" transform="translate(519.5625,94.875)"/>
<path d="M0 0 C1.11125244 -0.00637985 2.22250488 -0.0127597 3.36743164 -0.01933289 C4.56746826 -0.02044571 5.76750488 -0.02155853 7.00390625 -0.02270508 C8.85133423 -0.02769768 8.85133423 -0.02769768 10.73608398 -0.03279114 C13.34195583 -0.03785719 15.94783417 -0.04019956 18.55371094 -0.04003906 C21.22890955 -0.03995756 23.90393785 -0.04693551 26.57910156 -0.06054688 C30.42909007 -0.07880563 34.27887887 -0.08377268 38.12890625 -0.08520508 C39.32894287 -0.09239059 40.52897949 -0.09957611 41.76538086 -0.10697937 C43.43225952 -0.10236443 43.43225952 -0.10236443 45.1328125 -0.09765625 C46.6014978 -0.09979378 46.6014978 -0.09979378 48.09985352 -0.10197449 C50.56640625 0.14526367 50.56640625 0.14526367 53.56640625 2.14526367 C53.78748412 4.93379258 53.8474816 7.49179548 53.75390625 10.27026367 C53.73360352 11.40141602 53.73360352 11.40141602 53.71289062 12.55541992 C53.6775061 14.41900494 53.62369792 16.28222345 53.56640625 18.14526367 C50.3473754 19.7547791 46.81801793 19.38761115 43.27734375 19.46166992 C42.45891998 19.48245102 41.64049622 19.50323212 40.79727173 19.52464294 C38.17873659 19.59011179 35.56009986 19.64901093 32.94140625 19.70776367 C31.16795818 19.75095144 29.39452044 19.79456581 27.62109375 19.83862305 C23.26963579 19.94579043 18.91807548 20.04706536 14.56640625 20.14526367 C14.56640625 25.42526367 14.56640625 30.70526367 14.56640625 36.14526367 C30.40640625 36.64026367 30.40640625 36.64026367 46.56640625 37.14526367 C48.69105678 41.39456473 48.71793042 42.71947245 48.25390625 47.27026367 C48.15464844 48.3247168 48.05539062 49.37916992 47.953125 50.46557617 C47.56640625 53.14526367 47.56640625 53.14526367 46.56640625 55.14526367 C30.72640625 55.64026367 30.72640625 55.64026367 14.56640625 56.14526367 C14.23640625 66.70526367 13.90640625 77.26526367 13.56640625 88.14526367 C11.23476789 89.31108285 9.84487143 89.27431977 7.25 89.27807617 C5.9805957 89.28000977 5.9805957 89.28000977 4.68554688 89.28198242 C3.80060547 89.27811523 2.91566406 89.27424805 2.00390625 89.27026367 C1.11509766 89.27413086 0.22628906 89.27799805 -0.68945312 89.28198242 C-1.53443359 89.28069336 -2.37941406 89.2794043 -3.25 89.27807617 C-4.41704468 89.27638428 -4.41704468 89.27638428 -5.60766602 89.2746582 C-7.43359375 89.14526367 -7.43359375 89.14526367 -8.43359375 88.14526367 C-8.52873967 85.43688281 -8.55914307 82.75407854 -8.54711914 80.04541016 C-8.54726517 79.19670349 -8.54741119 78.34799683 -8.54756165 77.47357178 C-8.54686223 74.65447476 -8.53906853 71.83544296 -8.53125 69.01635742 C-8.52938592 67.06722551 -8.52796197 65.11809312 -8.52696228 63.16896057 C-8.5231363 58.02819535 -8.51330534 52.8874582 -8.5022583 47.7467041 C-8.4920459 42.5052122 -8.48746503 37.26371577 -8.48242188 32.0222168 C-8.47168314 21.72988673 -8.45460576 11.43757753 -8.43359375 1.14526367 C-5.35400018 0.11873248 -3.22686098 0.0125624 0 0 Z " fill="#1B202A" transform="translate(274.43359375,95.854736328125)"/>
<path d="M0 0 C0.6585498 0.23227295 1.31709961 0.4645459 1.99560547 0.70385742 C10.6832018 3.89506517 14.98875114 7.89642763 19.5 15.875 C19.83 16.205 20.16 16.535 20.5 16.875 C22.77536232 21.17290661 22.42221976 24.17167924 21.5 28.875 C22.16 28.875 22.82 28.875 23.5 28.875 C23.5 29.865 23.5 30.855 23.5 31.875 C22.84 31.875 22.18 31.875 21.5 31.875 C21.5 33.855 21.5 35.835 21.5 37.875 C7.31 37.875 -6.88 37.875 -21.5 37.875 C-21.5 38.535 -21.5 39.195 -21.5 39.875 C-22.16 39.875 -22.82 39.875 -23.5 39.875 C-23.5 40.535 -23.5 41.195 -23.5 41.875 C-22.51 41.875 -21.52 41.875 -20.5 41.875 C-20.04625 42.65875 -19.5925 43.4425 -19.125 44.25 C-17.71067155 46.94085679 -17.71067155 46.94085679 -15.4375 48.25 C-11.08622781 49.17580259 -6.839294 48.82734063 -2.5 47.875 C-1.84 47.215 -1.18 46.555 -0.5 45.875 C-0.5 45.215 -0.5 44.555 -0.5 43.875 C1.88415259 42.45485388 3.63885738 41.69604414 6.41259766 42.27246094 C8.58305982 43.0250512 10.69454002 43.86041895 12.8125 44.75 C13.55306641 45.04519531 14.29363281 45.34039062 15.05664062 45.64453125 C16.87726407 46.37278063 18.68952451 47.12187624 20.5 47.875 C19.7592182 52.73485422 18.25806717 54.64131429 14.5 57.875 C12.3125 59.0625 12.3125 59.0625 10.5 59.875 C9.84 60.535 9.18 61.195 8.5 61.875 C-0.82321335 66.32239718 -13.99320942 66.63509258 -23.8125 63.5625 C-26.72376117 62.37000264 -29.1348867 60.97732294 -31.5 58.875 C-32.2425 58.359375 -32.985 57.84375 -33.75 57.3125 C-34.3275 56.838125 -34.905 56.36375 -35.5 55.875 C-35.5 55.215 -35.5 54.555 -35.5 53.875 C-36.16 53.545 -36.82 53.215 -37.5 52.875 C-40.33560586 51.45719707 -40.49358679 49.82714542 -41.5 46.875 C-42.27916041 43.68044232 -42.5 41.21081687 -42.5 37.875 C-43.16 37.875 -43.82 37.875 -44.5 37.875 C-44.5 33.915 -44.5 29.955 -44.5 25.875 C-43.84 25.875 -43.18 25.875 -42.5 25.875 C-42.83 23.895 -43.16 21.915 -43.5 19.875 C-42.51 19.545 -41.52 19.215 -40.5 18.875 C-40.83 17.885 -41.16 16.895 -41.5 15.875 C-40.57421875 14.05078125 -40.57421875 14.05078125 -39.1875 12.1875 C-38.73761719 11.56488281 -38.28773438 10.94226563 -37.82421875 10.30078125 C-37.38722656 9.83027344 -36.95023437 9.35976562 -36.5 8.875 C-35.84 8.875 -35.18 8.875 -34.5 8.875 C-34.17 8.215 -33.84 7.555 -33.5 6.875 C-27.71643654 1.86257833 -21.94558153 0.28054345 -14.5 -1.125 C-13.3759375 -1.35960938 -12.251875 -1.59421875 -11.09375 -1.8359375 C-6.97360051 -2.16734083 -3.81858952 -1.38293013 0 0 Z M-18.5 17.875 C-19.49 18.535 -20.48 19.195 -21.5 19.875 C-21.17 20.535 -20.84 21.195 -20.5 21.875 C-21.49 22.205 -22.48 22.535 -23.5 22.875 C-23.17 23.535 -22.84 24.195 -22.5 24.875 C-14.91 24.875 -7.32 24.875 0.5 24.875 C0.83 23.225 1.16 21.575 1.5 19.875 C0.695625 19.42125 -0.10875 18.9675 -0.9375 18.5 C-3.5 16.875 -3.5 16.875 -4.5 14.875 C-6.27007714 14.79385894 -8.04122098 14.73574495 -9.8125 14.6875 C-10.79863281 14.65269531 -11.78476562 14.61789063 -12.80078125 14.58203125 C-15.93850261 14.92259435 -16.54560642 15.50794854 -18.5 17.875 Z M1.5 21.875 C2.5 24.875 2.5 24.875 2.5 24.875 Z " fill="#1C202B" transform="translate(419.5,121.125)"/>
<path d="M0 0 C0 0.66 0 1.32 0 2 C0.66 2 1.32 2 2 2 C2.65239158 3.39278017 3.29660552 4.78939212 3.9375 6.1875 C4.47697266 7.35345703 4.47697266 7.35345703 5.02734375 8.54296875 C7.23108078 14.1098386 7.14657466 19.52140102 7.1328125 25.421875 C7.13376923 26.32246643 7.13472595 27.22305786 7.13571167 28.15093994 C7.13639029 30.04707916 7.13455824 31.94322075 7.13037109 33.83935547 C7.1249933 36.75363306 7.13033964 39.66775828 7.13671875 42.58203125 C7.1360584 44.42447951 7.13477814 46.26692767 7.1328125 48.109375 C7.13483673 48.98535339 7.13686096 49.86133179 7.13894653 50.76385498 C7.11496685 56.88503315 7.11496685 56.88503315 6 58 C4.47392411 58.0990473 2.94334793 58.13079611 1.4140625 58.1328125 C0.01800781 58.13474609 0.01800781 58.13474609 -1.40625 58.13671875 C-2.87578125 58.13091797 -2.87578125 58.13091797 -4.375 58.125 C-5.83292969 58.13080078 -5.83292969 58.13080078 -7.3203125 58.13671875 C-8.25359375 58.13542969 -9.186875 58.13414062 -10.1484375 58.1328125 C-11.43500244 58.13112061 -11.43500244 58.13112061 -12.74755859 58.12939453 C-15 58 -15 58 -18 57 C-19.485 57.4640625 -19.485 57.4640625 -21 57.9375 C-29.05792729 60.40904913 -39.46693753 59.89274657 -47 56 C-48.30859375 53.38671875 -48.30859375 53.38671875 -49 51 C-49.66 51 -50.32 51 -51 51 C-56.88689655 39.76137931 -56.88689655 39.76137931 -55 33 C-54.01 32.505 -54.01 32.505 -53 32 C-52.61328125 30.83404297 -52.61328125 30.83404297 -52.21875 29.64453125 C-50.61836773 26.1719069 -48.8697279 25.40340092 -45.5 23.6875 C-44.03046875 22.91986328 -44.03046875 22.91986328 -42.53125 22.13671875 C-40 21 -40 21 -38 21 C-37.67 20.34 -37.34 19.68 -37 19 C-36.34 19.33 -35.68 19.66 -35 20 C-34.67 19.34 -34.34 18.68 -34 18 C-27.07 18.33 -20.14 18.66 -13 19 C-13 17.68 -13 16.36 -13 15 C-13.66 15 -14.32 15 -15 15 C-15 14.34 -15 13.68 -15 13 C-17.51406888 10.27642538 -19.08565153 9.99017114 -22.8125 9.5625 C-27.44136507 9.73586573 -30.25874162 11.32767259 -34 14 C-34.33 14.99 -34.66 15.98 -35 17 C-35.94875 16.67 -36.8975 16.34 -37.875 16 C-40.77062452 14.89840809 -40.77062452 14.89840809 -43 15 C-43.433125 14.54625 -43.86625 14.0925 -44.3125 13.625 C-46.35628817 11.65690769 -48.34530324 10.93273129 -51 10 C-51.125 5.25 -51.125 5.25 -50 3 C-49.01 2.67 -48.02 2.34 -47 2 C-46.5875 1.566875 -46.175 1.13375 -45.75 0.6875 C-33.61042719 -11.01851663 -13.08773792 -8.62600909 0 0 Z M-34 36 C-34.2500773 38.45809998 -34.2500773 38.45809998 -34 41 C-33.34 41.66 -32.68 42.32 -32 43 C-31.01 43 -30.02 43 -29 43 C-29 43.66 -29 44.32 -29 45 C-22.41461673 45.24958953 -22.41461673 45.24958953 -16.8125 42.1875 C-14.57465476 39.96012388 -14.57465476 39.96012388 -15 36 C-14.34 36 -13.68 36 -13 36 C-13 34.68 -13 33.36 -13 32 C-15.39652528 31.91860858 -17.79025436 31.85932991 -20.1875 31.8125 C-21.19780273 31.77479492 -21.19780273 31.77479492 -22.22851562 31.73632812 C-27.11982148 31.66474804 -30.48576106 32.48576106 -34 36 Z M-54 42 C-53 44 -53 44 -53 44 Z " fill="#0BB642" transform="translate(725,127)"/>
<path d="M0 0 C14.15478849 0.16771076 30.25611542 5.68050061 40.875 15.3125 C40.875 15.9725 40.875 16.6325 40.875 17.3125 C41.865 17.6425 42.855 17.9725 43.875 18.3125 C49.246349 24.25860425 52.5775211 29.28056975 52.875 37.3125 C53.865 37.8075 53.865 37.8075 54.875 38.3125 C56.42864618 42.78421242 56.32856172 47.64837361 55.875 52.3125 C54.375 55.3125 54.375 55.3125 52.875 57.3125 C52.875 57.9725 52.875 58.6325 52.875 59.3125 C51.555 58.9825 50.235 58.6525 48.875 58.3125 C49.37 62.2725 49.37 62.2725 49.875 66.3125 C50.535 66.3125 51.195 66.3125 51.875 66.3125 C52.37 69.7775 52.37 69.7775 52.875 73.3125 C49.86468256 74.24673645 49.00849732 74.35699911 45.875 73.3125 C45.875 71.6625 45.875 70.0125 45.875 68.3125 C44.555 67.9825 43.235 67.6525 41.875 67.3125 C41.875 66.6525 41.875 65.9925 41.875 65.3125 C40.59625 65.374375 39.3175 65.43625 38 65.5 C28.19015208 65.4385925 20.13698086 61.86252195 12.875 55.3125 C5.61350555 46.79902374 -0.27893563 37.37712509 -2.4140625 26.3125 C-2.63320313 25.178125 -2.85234375 24.04375 -3.078125 22.875 C-3.29984375 21.699375 -3.5215625 20.52375 -3.75 19.3125 C-3.97945312 18.136875 -4.20890625 16.96125 -4.4453125 15.75 C-6.37523469 5.64088378 -6.37523469 5.64088378 -6.125 1.3125 C-4.42243279 -0.39006721 -2.33388838 0.05912517 0 0 Z M36.875 41.3125 C37.205 41.9725 37.535 42.6325 37.875 43.3125 C38.865 42.9825 39.855 42.6525 40.875 42.3125 C39.555 41.9825 38.235 41.6525 36.875 41.3125 Z M52.875 41.3125 C53.875 43.3125 53.875 43.3125 53.875 43.3125 Z M39.875 43.3125 C39.545 43.9725 39.215 44.6325 38.875 45.3125 C39.535 45.3125 40.195 45.3125 40.875 45.3125 C40.545 46.3025 40.215 47.2925 39.875 48.3125 C40.865 48.3125 41.855 48.3125 42.875 48.3125 C42.545 46.6625 42.215 45.0125 41.875 43.3125 C41.215 43.3125 40.555 43.3125 39.875 43.3125 Z M52.875 44.3125 C53.875 47.3125 53.875 47.3125 53.875 47.3125 Z M42.875 48.3125 C42.545 49.3025 42.215 50.2925 41.875 51.3125 C42.535 51.3125 43.195 51.3125 43.875 51.3125 C43.545 50.3225 43.215 49.3325 42.875 48.3125 Z M52.875 48.3125 C53.875 50.3125 53.875 50.3125 53.875 50.3125 Z M47.875 53.3125 C48.875 55.3125 48.875 55.3125 48.875 55.3125 Z M46.875 60.3125 C47.875 62.3125 47.875 62.3125 47.875 62.3125 Z " fill="#43B313" transform="translate(57.125,121.6875)"/>
<path d="M0 0 C0.495 1.485 0.495 1.485 1 3 C1.99 3.33 2.98 3.66 4 4 C5.6875 7.0625 5.6875 7.0625 7 10 C1.65616659 13.50689068 -3.35313786 16.08678237 -9.8125 15.875 C-12.89304685 15.02935969 -14.22468909 14.61075133 -16 12 C-16 11.34 -16 10.68 -16 10 C-19.3 10 -22.6 10 -26 10 C-25.34 12.31 -24.68 14.62 -24 17 C-23.28457031 17.15855469 -22.56914062 17.31710938 -21.83203125 17.48046875 C-13.92333464 19.33231103 -6.51562836 21.93313875 1 25 C1 25.66 1 26.32 1 27 C1.66 27 2.32 27 3 27 C3 27.66 3 28.32 3 29 C3.639375 29.2475 4.27875 29.495 4.9375 29.75 C7 31 7 31 7.62109375 32.765625 C8.03668061 35.21630215 8.13257754 37.51456581 8.125 40 C8.12886719 41.2684375 8.12886719 41.2684375 8.1328125 42.5625 C8.00833711 44.84698944 7.63877457 46.80991574 7 49 C6.34 49 5.68 49 5 49 C4.79375 49.556875 4.5875 50.11375 4.375 50.6875 C1.68836927 55.2059244 -1.84787411 57.95719455 -6.875 59.3125 C-19.20400296 61.42604336 -30.75409936 60.80581049 -42 55 C-45.40361266 52.45070778 -46.8009599 50.04913394 -47.60546875 45.80859375 C-47.73566406 44.88175781 -47.86585938 43.95492187 -48 43 C-36.36647727 37.47932994 -36.36647727 37.47932994 -31.9375 37.9375 C-28.68769269 39.11296222 -27.57071042 39.95097388 -26 43 C-26 43.66 -26 44.32 -26 45 C-24.4156683 44.91231752 -22.83246433 44.80412671 -21.25 44.6875 C-20.36828125 44.62949219 -19.4865625 44.57148438 -18.578125 44.51171875 C-15.64584554 43.92970571 -14.1597081 43.04364902 -12 41 C-12 40.34 -12 39.68 -12 39 C-15.28794521 37.20874656 -18.60342849 36.12872916 -22.1875 35.0625 C-23.90839844 34.53849609 -23.90839844 34.53849609 -25.6640625 34.00390625 C-27.67688874 33.39817283 -29.69191816 32.79960295 -31.7109375 32.21484375 C-36.17946775 30.85646994 -38.91462344 29.67871821 -42 26 C-42.99 25.34 -43.98 24.68 -45 24 C-47.02350324 20.96474514 -47.32124018 19.80573798 -47.625 16.3125 C-47.69976562 15.50425781 -47.77453125 14.69601563 -47.8515625 13.86328125 C-47.90054687 13.24839844 -47.94953125 12.63351563 -48 12 C-47.34 12 -46.68 12 -46 12 C-46.061875 11.0925 -46.12375 10.185 -46.1875 9.25 C-45.98313144 5.70761168 -45.47346304 4.47346304 -43 2 C-42.34 2 -41.68 2 -41 2 C-40.67 1.01 -40.34 0.02 -40 -1 C-28.08354675 -8.2753083 -11.54658132 -8.09124526 0 0 Z M-29 13 C-29 13.66 -29 14.32 -29 15 C-28.34 15 -27.68 15 -27 15 C-27 14.34 -27 13.68 -27 13 C-27.66 13 -28.32 13 -29 13 Z " fill="#1C202A" transform="translate(494,126)"/>
<path d="M0 0 C2.97922593 -0.02683987 5.95821295 -0.04676037 8.9375 -0.0625 C10.21270508 -0.07506836 10.21270508 -0.07506836 11.51367188 -0.08789062 C12.32255859 -0.09111328 13.13144531 -0.09433594 13.96484375 -0.09765625 C14.7137085 -0.10289307 15.46257324 -0.10812988 16.23413086 -0.11352539 C18 0 18 0 19 1 C19.07319621 3.69654854 19.09242537 6.36691458 19.0625 9.0625 C19.05798828 9.82111328 19.05347656 10.57972656 19.04882812 11.36132812 C19.0370068 13.24091871 19.01907078 15.12046899 19 17 C20.14339844 17.06058594 21.28679688 17.12117188 22.46484375 17.18359375 C23.95574305 17.26798428 25.44662775 17.35263302 26.9375 17.4375 C27.69224609 17.47681641 28.44699219 17.51613281 29.22460938 17.55664062 C34.88671875 17.88671875 34.88671875 17.88671875 36 19 C36.15179378 21.30901696 36.22181122 23.62367069 36.25 25.9375 C36.27578125 27.20464844 36.3015625 28.47179687 36.328125 29.77734375 C36.21984375 30.84082031 36.1115625 31.90429688 36 33 C32.47844036 35.34770643 30.49228157 35.37669614 26.3125 35.625 C24.54326172 35.73714844 24.54326172 35.73714844 22.73828125 35.8515625 C21.83464844 35.90054688 20.93101562 35.94953125 20 36 C19.97100401 39.77081722 19.95320271 43.54160583 19.9375 47.3125 C19.92912109 48.38435547 19.92074219 49.45621094 19.91210938 50.56054688 C19.90888672 51.58857422 19.90566406 52.61660156 19.90234375 53.67578125 C19.89710693 54.62364502 19.89187012 55.57150879 19.88647461 56.5480957 C19.89501146 59.13838681 19.89501146 59.13838681 21 62 C24.45198147 64.30132098 25.13284192 64.12387973 29.0625 63.5625 C33.80252583 62.90126292 33.80252583 62.90126292 36 64 C36.08097324 66.27024968 36.13917704 68.54132075 36.1875 70.8125 C36.23970703 72.70935547 36.23970703 72.70935547 36.29296875 74.64453125 C36 78 36 78 34.91015625 79.90234375 C28.84333766 83.38859328 18.70048901 82.60229085 12 81 C8.12009916 79.66974828 6.45912307 77.19686 4 74 C3.34 73.67 2.68 73.34 2 73 C-2.14900418 65.19010978 -1.12973089 55.01719546 -1.0625 46.4375 C-1.05798828 45.33341797 -1.05347656 44.22933594 -1.04882812 43.09179688 C-1.03715155 40.39450742 -1.01922028 37.69724625 -1 35 C-4.3 35 -7.6 35 -11 35 C-12 32 -12 32 -12 29 C-12.02320313 28.27683594 -12.04640625 27.55367187 -12.0703125 26.80859375 C-12.09738281 25.63490234 -12.09738281 25.63490234 -12.125 24.4375 C-12.14820313 23.65246094 -12.17140625 22.86742188 -12.1953125 22.05859375 C-12 20 -12 20 -10 18 C-7.8359375 17.5859375 -7.8359375 17.5859375 -5.375 17.375 C-4.55773437 17.30023438 -3.74046875 17.22546875 -2.8984375 17.1484375 C-2.27195312 17.09945312 -1.64546875 17.05046875 -1 17 C-1.01740234 15.66195312 -1.01740234 15.66195312 -1.03515625 14.296875 C-1.04417969 13.12640625 -1.05320312 11.9559375 -1.0625 10.75 C-1.07410156 9.58984375 -1.08570313 8.4296875 -1.09765625 7.234375 C-1.01682882 4.55737061 -0.69888645 2.54404342 0 0 Z " fill="#0CB743" transform="translate(797,104)"/>
<path d="M0 0 C2.49118953 3.7367843 2.2065226 5.74451819 2.125 10.1875 C2.10695313 11.45980469 2.08890625 12.73210937 2.0703125 14.04296875 C2.04710937 15.01878906 2.02390625 15.99460938 2 17 C-1.39773108 18.52251272 -3.04287314 18.99792549 -6.875 18.8125 C-11.09001232 18.68452999 -13.3568282 20.11349383 -16.65234375 22.61328125 C-18.26540201 24.07221979 -18.26540201 24.07221979 -19 27 C-19.33 27.33 -19.66 27.66 -20 28 C-20.08851529 30.59359322 -20.11525945 33.16039691 -20.09765625 35.75390625 C-20.09553383 36.91707619 -20.09553383 36.91707619 -20.09336853 38.10374451 C-20.08775345 40.59003494 -20.07519846 43.0762366 -20.0625 45.5625 C-20.05748694 47.24413933 -20.0529237 48.92578006 -20.04882812 50.60742188 C-20.03777913 54.73831566 -20.02050445 58.86914276 -20 63 C-22.27073079 64.1353654 -23.54283279 64.12892412 -26.0625 64.1328125 C-26.85914063 64.13410156 -27.65578125 64.13539063 -28.4765625 64.13671875 C-29.30929687 64.13285156 -30.14203125 64.12898438 -31 64.125 C-31.83273437 64.12886719 -32.66546875 64.13273437 -33.5234375 64.13671875 C-34.32007813 64.13542969 -35.11671875 64.13414062 -35.9375 64.1328125 C-36.66839844 64.13168457 -37.39929688 64.13055664 -38.15234375 64.12939453 C-40 64 -40 64 -42 63 C-42 42.87 -42 22.74 -42 2 C-39.70929884 0.85464942 -38.40417408 0.87102829 -35.859375 0.8671875 C-35.03566406 0.86589844 -34.21195312 0.86460938 -33.36328125 0.86328125 C-32.50089844 0.86714844 -31.63851563 0.87101562 -30.75 0.875 C-29.90308594 0.87113281 -29.05617188 0.86726563 -28.18359375 0.86328125 C-23.65479583 0.87032448 -19.47262516 1.23385588 -15 2 C-14.2575 1.690625 -13.515 1.38125 -12.75 1.0625 C-8.6676323 -0.51477843 -4.32245378 -0.71148354 0 0 Z M-41 6 C-40 8 -40 8 -40 8 Z M0 7 C0 9.64 0 12.28 0 15 C0.33 15 0.66 15 1 15 C1 12.36 1 9.72 1 7 C0.67 7 0.34 7 0 7 Z M-41 14 C-40 16 -40 16 -40 16 Z M-41 19 C-40 22 -40 22 -40 22 Z M-41 25 C-40 27 -40 27 -40 27 Z M-22 32 C-22 41.9 -22 51.8 -22 62 C-21.67 62 -21.34 62 -21 62 C-21 52.1 -21 42.2 -21 32 C-21.33 32 -21.66 32 -22 32 Z M-41 57 C-40 59 -40 59 -40 59 Z " fill="#1C202B" transform="translate(374,121)"/>
<path d="M0 0 C0.77601563 -0.00257812 1.55203125 -0.00515625 2.3515625 -0.0078125 C4.375 0.125 4.375 0.125 6.375 1.125 C6.375 6.735 6.375 12.345 6.375 18.125 C2.375 19.125 2.375 19.125 -1 19 C-5.00954054 19.13826002 -7.16448275 20.19354851 -10.625 22.125 C-11.285 22.125 -11.945 22.125 -12.625 22.125 C-14.28520877 27.21730326 -14.93980374 31.84420299 -15.00390625 37.2109375 C-15.02090073 37.95332672 -15.0378952 38.69571594 -15.05540466 39.46060181 C-15.10808738 41.80698394 -15.14867056 44.15335105 -15.1875 46.5 C-15.23144061 48.8679906 -15.27803586 51.23584645 -15.33030701 53.60366821 C-15.36226307 55.07147984 -15.38915362 56.53941206 -15.41053772 58.00741577 C-15.51315612 63.01315612 -15.51315612 63.01315612 -16.625 64.125 C-19.61518161 64.25167764 -22.57194108 64.31020838 -25.5625 64.3125 C-26.81836914 64.33086914 -26.81836914 64.33086914 -28.09960938 64.34960938 C-28.90076172 64.35154297 -29.70191406 64.35347656 -30.52734375 64.35546875 C-31.26460693 64.35957764 -32.00187012 64.36368652 -32.76147461 64.36791992 C-34.625 64.125 -34.625 64.125 -36.625 62.125 C-36.86550903 59.60665894 -36.86550903 59.60665894 -36.85205078 56.39013672 C-36.85189972 55.18904266 -36.85174866 53.98794861 -36.85159302 52.75045776 C-36.84127045 51.44835358 -36.83094788 50.14624939 -36.8203125 48.8046875 C-36.81658276 47.46233327 -36.81373561 46.11997633 -36.81173706 44.77761841 C-36.80409744 41.242986 -36.7844463 37.70851772 -36.7623291 34.1739502 C-36.74187765 30.5678123 -36.73273685 26.96164791 -36.72265625 23.35546875 C-36.7012006 16.27857865 -36.66706079 9.20180003 -36.625 2.125 C-34.30156444 0.96328222 -32.92866684 0.99596031 -30.34375 0.9921875 C-29.50199219 0.99089844 -28.66023437 0.98960938 -27.79296875 0.98828125 C-26.47232422 0.99408203 -26.47232422 0.99408203 -25.125 1 C-24.24457031 0.99613281 -23.36414063 0.99226563 -22.45703125 0.98828125 C-21.19439453 0.99021484 -21.19439453 0.99021484 -19.90625 0.9921875 C-19.13345703 0.99331543 -18.36066406 0.99444336 -17.56445312 0.99560547 C-15.625 1.125 -15.625 1.125 -13.625 2.125 C-11.28041941 1.75480307 -9.03300336 1.24060095 -6.75 0.59375 C-4.44145792 0.08451278 -2.36197046 -0.00789957 0 0 Z M-16.625 5.125 C-15.625 7.125 -15.625 7.125 -15.625 7.125 Z " fill="#0BB841" transform="translate(777.625,120.875)"/>
<path d="M0 0 C1.32 0.66 2.64 1.32 4 2 C3.52913477 4.74671382 2.95489922 7.10774075 1.875 9.6875 C1.58625 10.450625 1.2975 11.21375 1 12 C1.83333333 14.16666667 1.83333333 14.16666667 4 15 C4 15.33 4 15.66 4 16 C6.39652528 16.08139142 8.79025436 16.14067009 11.1875 16.1875 C11.86103516 16.21263672 12.53457031 16.23777344 13.22851562 16.26367188 C17.78486223 16.33035012 20.27081545 15.53168026 24 13 C25.19625 12.835 26.3925 12.67 27.625 12.5 C31.1371313 11.97968425 31.84158214 11.61282162 34 9 C34.66 9 35.32 9 36 9 C36 8.01 36 7.02 36 6 C38.64 5.67 41.28 5.34 44 5 C36.91016245 13.60908846 24.98569673 17.63974025 14.19921875 18.84765625 C10.13491737 19.12919755 6.0712117 19.07508382 2 19 C1.773125 19.680625 1.54625 20.36125 1.3125 21.0625 C0.19509518 23.5633584 -0.87609926 25.28187955 -2.5 27.4375 C-4.319251 29.86848744 -5.13495271 31.40485812 -6.125 34.375 C-6.41375 35.24125 -6.7025 36.1075 -7 37 C-8.485 37.495 -8.485 37.495 -10 38 C-10.33 38.99 -10.66 39.98 -11 41 C-11.66 41 -12.32 41 -13 41 C-13.33 39.68 -13.66 38.36 -14 37 C-13.34 37 -12.68 37 -12 37 C-12.144375 36.443125 -12.28875 35.88625 -12.4375 35.3125 C-13.02769128 32.88615805 -13.523429 30.45093655 -14 28 C-13.01 27.67 -12.02 27.34 -11 27 C-11.061875 25.9171875 -11.061875 25.9171875 -11.125 24.8125 C-10.98913607 21.75556157 -10.36326842 19.72653683 -9 17 C-8.34 16.67 -7.68 16.34 -7 16 C-6.34791334 14.04374002 -5.70178699 12.08548011 -5.0625 10.125 C-4.12677145 7.37285722 -3.1064511 4.68709552 -2 2 C-1.34 2 -0.68 2 0 2 C0 1.34 0 0.68 0 0 Z M-11 28 C-10 31 -10 31 -10 31 Z " fill="#47B220" transform="translate(132,162)"/>
<path d="M0 0 C0.66 0 1.32 0 2 0 C2.65239158 1.39278017 3.29660552 2.78939212 3.9375 4.1875 C4.47697266 5.35345703 4.47697266 5.35345703 5.02734375 6.54296875 C7.23108078 12.1098386 7.14657466 17.52140102 7.1328125 23.421875 C7.13376923 24.32246643 7.13472595 25.22305786 7.13571167 26.15093994 C7.13639029 28.04707916 7.13455824 29.94322075 7.13037109 31.83935547 C7.1249933 34.75363306 7.13033964 37.66775828 7.13671875 40.58203125 C7.1360584 42.42447951 7.13477814 44.26692767 7.1328125 46.109375 C7.13483673 46.98535339 7.13686096 47.86133179 7.13894653 48.76385498 C7.11496685 54.88503315 7.11496685 54.88503315 6 56 C4.47392411 56.0990473 2.94334793 56.13079611 1.4140625 56.1328125 C0.01800781 56.13474609 0.01800781 56.13474609 -1.40625 56.13671875 C-2.3859375 56.13285156 -3.365625 56.12898438 -4.375 56.125 C-5.83292969 56.13080078 -5.83292969 56.13080078 -7.3203125 56.13671875 C-8.25359375 56.13542969 -9.186875 56.13414062 -10.1484375 56.1328125 C-11.43500244 56.13112061 -11.43500244 56.13112061 -12.74755859 56.12939453 C-15 56 -15 56 -18 55 C-19.60684166 55.50213802 -21.21322581 56.00582397 -22.81640625 56.51953125 C-27.14045871 57.4709775 -31.59713267 57.14331214 -36 57 C-36 56.67 -36 56.34 -36 56 C-34.27192682 55.66104344 -32.54248026 55.32908475 -30.8125 55 C-29.84957031 54.814375 -28.88664063 54.62875 -27.89453125 54.4375 C-25.2065794 54.03122388 -22.71228981 53.92066428 -20 54 C-19.67 53.01 -19.34 52.02 -19 51 C-17.0625 50.25 -17.0625 50.25 -15 50 C-14.34 50.33 -13.68 50.66 -13 51 C-13 51.99 -13 52.98 -13 54 C-5.08 53.505 -5.08 53.505 3 53 C4.44845783 47.20616868 4.2631759 41.41774386 4.29516602 35.47802734 C4.30655563 34.01406082 4.32679432 32.55013135 4.35668945 31.08642578 C4.58007131 20.1219954 3.13784734 10.50855232 0 0 Z " fill="#069958" transform="translate(725,129)"/>
<path d="M0 0 C0.99 0.99 1.98 1.98 3 3 C1.68 3.33 0.36 3.66 -1 4 C-1 4.66 -1 5.32 -1 6 C-0.21625 5.95875 0.5675 5.9175 1.375 5.875 C4 6 4 6 6 8 C6.99 8.33 7.98 8.66 9 9 C9 9.66 9 10.32 9 11 C9.99 11 10.98 11 12 11 C12.2475 11.598125 12.495 12.19625 12.75 12.8125 C13.82989394 15.10941228 13.82989394 15.10941228 15.9375 16.1875 C19.19178067 19.0473224 19.86915207 22.9135268 21 27 C19.68 26.67 18.36 26.34 17 26 C16.938125 25.21625 16.87625 24.4325 16.8125 23.625 C16.544375 22.75875 16.27625 21.8925 16 21 C13.52363988 19.62533375 13.52363988 19.62533375 11 19 C11 20.32 11 21.64 11 23 C10.34 23 9.68 23 9 23 C8 17.25 8 17.25 8 15 C7.01 14.34 6.02 13.68 5 13 C5 12.01 5 11.02 5 10 C4.01 10 3.02 10 2 10 C2 9.34 2 8.68 2 8 C1.38125 7.87625 0.7625 7.7525 0.125 7.625 C-2 7 -2 7 -4 5 C-6.06874034 4.3574765 -6.06874034 4.3574765 -8 4 C-7.67 3.01 -7.34 2.02 -7 1 C-6.401875 1.20625 -5.80375 1.4125 -5.1875 1.625 C-2.71549154 2.30671915 -2.71549154 2.30671915 0 0 Z " fill="#48A51F" transform="translate(83,144)"/>
<path d="M0 0 C0.99 0 1.98 0 3 0 C2.02575771 6.21079458 2.02575771 6.21079458 -0.9140625 8.47265625 C-2.36040911 9.30826639 -3.8294778 10.10599946 -5.3203125 10.859375 C-5.87460938 11.23578125 -6.42890625 11.6121875 -7 12 C-7 12.99 -7 13.98 -7 15 C-9.046875 16.90234375 -9.046875 16.90234375 -11.75 18.9375 C-15.07054186 21.45703395 -18.11510794 23.9870403 -21 27 C-20.51466992 21.33781569 -17.22256269 18.99264242 -13.1875 15.375 C-11.67319006 13.92438937 -11.67319006 13.92438937 -12 11 C-12.66 11 -13.32 11 -14 11 C-14 10.01 -14 9.02 -14 8 C-13.360625 7.896875 -12.72125 7.79375 -12.0625 7.6875 C-11.0415625 7.3471875 -11.0415625 7.3471875 -10 7 C-9.67 6.01 -9.34 5.02 -9 4 C-4.545 3.505 -4.545 3.505 0 3 C0 2.01 0 1.02 0 0 Z " fill="#4AB223" transform="translate(174,101)"/>
<path d="M0 0 C7.75 -0.125 7.75 -0.125 10 1 C10 6.61 10 12.22 10 18 C6 19 6 19 2.625 18.875 C-1.38454054 19.01326002 -3.53948275 20.06854851 -7 22 C-7.66 22 -8.32 22 -9 22 C-9.66 23.98 -10.32 25.96 -11 28 C-11.33 28 -11.66 28 -12 28 C-12.25 25.1875 -12.25 25.1875 -12 22 C-10.125 20.125 -10.125 20.125 -8 19 C-7.34 19 -6.68 19 -6 19 C-6 18.34 -6 17.68 -6 17 C-1.71 16.34 2.58 15.68 7 15 C6.896875 13.55625 6.79375 12.1125 6.6875 10.625 C6.62949219 9.81289062 6.57148437 9.00078125 6.51171875 8.1640625 C6.17009472 5.62078662 6.17009472 5.62078662 3 4 C2.01 3.34 1.02 2.68 0 2 C0 1.34 0 0.68 0 0 Z " fill="#18B451" transform="translate(774,121)"/>
<path d="M0 0 C2.51564471 1.11806432 4.35798767 2.29533983 6.5 4.0625 C8.82767647 5.86644927 10.1441791 6.57691542 13 7 C13 7.99 13 8.98 13 10 C14.32 10 15.64 10 17 10 C17 9.01 17 8.02 17 7 C19.31 7 21.62 7 24 7 C22.60240095 3.45481116 22.60240095 3.45481116 21 0 C21.99 0 22.98 0 24 0 C27.08953771 3.97226277 27.08953771 3.97226277 26.8203125 7.0625 C26 9 26 9 24.2578125 10.046875 C23.55398438 10.27890625 22.85015625 10.5109375 22.125 10.75 C21.42632813 10.99234375 20.72765625 11.2346875 20.0078125 11.484375 C18 12 18 12 15 12 C14.67 12.66 14.34 13.32 14 14 C11.75 14.25 11.75 14.25 9 14 C6.6875 12 6.6875 12 5 10 C5.33 9.67 5.66 9.34 6 9 C5.34 8.67 4.68 8.34 4 8 C4 7.34 4 6.68 4 6 C3.34 6 2.68 6 2 6 C0 1.125 0 1.125 0 0 Z " fill="#10B64A" transform="translate(639,114)"/>
<path d="M0 0 C0.33 0 0.66 0 1 0 C1.33 3.63 1.66 7.26 2 11 C2.66 11 3.32 11 4 11 C4.33 13.31 4.66 15.62 5 18 C1.98968256 18.93423645 1.13349732 19.04449911 -2 18 C-2 16.35 -2 14.7 -2 13 C-3.32 12.67 -4.64 12.34 -6 12 C-6 11.34 -6 10.68 -6 10 C-6.90492187 10.03480469 -6.90492187 10.03480469 -7.828125 10.0703125 C-9.02695313 10.09738281 -9.02695313 10.09738281 -10.25 10.125 C-11.03890625 10.14820313 -11.8278125 10.17140625 -12.640625 10.1953125 C-15.20731941 9.9828378 -16.7916067 9.28654105 -19 8 C-18.02160156 8.03480469 -18.02160156 8.03480469 -17.0234375 8.0703125 C-11.99758498 8.17409117 -7.6241574 8.25279463 -3 6 C-2.67 5.01 -2.34 4.02 -2 3 C-1.34 2.01 -0.68 1.02 0 0 Z M-1 5 C0 7 0 7 0 7 Z " fill="#4EAB24" transform="translate(105,177)"/>
<path d="M0 0 C0.33 0 0.66 0 1 0 C1.04241723 2.33294775 1.04092937 4.66702567 1 7 C-0.61170254 8.61170254 -2.36132542 8.12987931 -4.5859375 8.1328125 C-5.98199219 8.13474609 -5.98199219 8.13474609 -7.40625 8.13671875 C-8.3859375 8.13285156 -9.365625 8.12898437 -10.375 8.125 C-11.83292969 8.13080078 -11.83292969 8.13080078 -13.3203125 8.13671875 C-14.25359375 8.13542969 -15.186875 8.13414062 -16.1484375 8.1328125 C-17.43500244 8.13112061 -17.43500244 8.13112061 -18.74755859 8.12939453 C-21 8 -21 8 -24 7 C-25.60684166 7.50213802 -27.21322581 8.00582397 -28.81640625 8.51953125 C-33.14045871 9.4709775 -37.59713267 9.14331214 -42 9 C-42 8.67 -42 8.34 -42 8 C-40.27192682 7.66104344 -38.54248026 7.32908475 -36.8125 7 C-35.84957031 6.814375 -34.88664063 6.62875 -33.89453125 6.4375 C-31.2065794 6.03122388 -28.71228981 5.92066428 -26 6 C-25.67 5.01 -25.34 4.02 -25 3 C-23.0625 2.25 -23.0625 2.25 -21 2 C-20.34 2.33 -19.68 2.66 -19 3 C-19 3.99 -19 4.98 -19 6 C-16.37251369 5.94014838 -13.75083005 5.85323776 -11.125 5.75 C-10.37863281 5.73582031 -9.63226562 5.72164062 -8.86328125 5.70703125 C-6.42861619 5.64013659 -6.42861619 5.64013659 -3 5 C-1.45811659 3.12847392 -1.45811659 3.12847392 -1 1 C-0.67 0.67 -0.34 0.34 0 0 Z " fill="#249D52" transform="translate(731,177)"/>
<path d="M0 0 C4.04190048 3.62377284 6.82568758 7.32720955 7.1875 12.875 C7.125625 13.57625 7.06375 14.2775 7 15 C7.66 15.33 8.32 15.66 9 16 C10.10348459 19.08142868 10.10523224 22.00234962 10.0625 25.25 C10.05347656 26.14203125 10.04445313 27.0340625 10.03515625 27.953125 C10.02355469 28.62859375 10.01195313 29.3040625 10 30 C9.01 30 8.02 30 7 30 C6.32741333 27.66836622 5.66152556 25.3347961 5 23 C4.773125 22.236875 4.54625 21.47375 4.3125 20.6875 C4 19 4 19 5 17 C4.15221809 13.32627839 3.08927353 10.17511347 1.375 6.8125 C0 4 0 4 0 0 Z M7 19 C8 21 8 21 8 21 Z M7 22 C8 25 8 25 8 25 Z M7 26 C8 28 8 28 8 28 Z " fill="#3DC01F" transform="translate(103,144)"/>
<path d="M0 0 C-0.99 0.33 -1.98 0.66 -3 1 C-3.33 1.99 -3.66 2.98 -4 4 C-6.4375 6.6875 -6.4375 6.6875 -9 9 C-9.66 9 -10.32 9 -11 9 C-11 9.66 -11 10.32 -11 11 C-11.66 11 -12.32 11 -13 11 C-13.226875 11.515625 -13.45375 12.03125 -13.6875 12.5625 C-15.48217618 15.89547005 -17.49965015 19.14703671 -20 22 C-20.66 22 -21.32 22 -22 22 C-22.061875 22.7425 -22.12375 23.485 -22.1875 24.25 C-23.24185138 27.8185739 -24.99909773 28.92245228 -28 31 C-27.49096406 26.54593551 -25.92257804 24.34008918 -23 21 C-21.66104368 19.33784732 -20.32869858 17.67036393 -19 16 C-18.17435547 14.97519531 -18.17435547 14.97519531 -17.33203125 13.9296875 C-14.52137477 10.39389363 -11.9351433 7.06215332 -9.9375 3 C-8 0 -8 0 -4.875 -1 C-2 -1 -2 -1 0 0 Z " fill="#4CB227" transform="translate(159,114)"/>
<path d="M0 0 C-0.66 1.32 -1.32 2.64 -2 4 C-2.66 4 -3.32 4 -4 4 C-4.0825 4.556875 -4.165 5.11375 -4.25 5.6875 C-5.24709896 8.76188846 -6.79229454 10.66242952 -9 13 C-9.99 13 -10.98 13 -12 13 C-12.33 13.99 -12.66 14.98 -13 16 C-15.21701147 17.58965571 -17.57862473 18.72327486 -20 20 C-19.6875 18.0625 -19.6875 18.0625 -19 16 C-18.01 15.67 -17.02 15.34 -16 15 C-15.29848848 13.6846659 -14.63474075 12.34882408 -14 11 C-11.96827868 8.61493584 -11.06968154 8.02322718 -8 7 C-8.33 5.02 -8.66 3.04 -9 1 C-2.25 -1.125 -2.25 -1.125 0 0 Z " fill="#16AC4C" transform="translate(667,162)"/>
<path d="M0 0 C-10.60962998 9.32749947 -24.96882787 13.62360765 -39 13 C-35.72148265 10.81432177 -34.45057807 10.73543709 -30.625 10.5625 C-26.18580834 10.2420859 -23.72803052 9.48535368 -20 7 C-18.80375 6.835 -17.6075 6.67 -16.375 6.5 C-12.8628687 5.97968425 -12.15841786 5.61282162 -10 3 C-9.34 3 -8.68 3 -8 3 C-8 2.01 -8 1.02 -8 0 C-4.71303767 -0.79953138 -3.28976808 -1.09658936 0 0 Z " fill="#56A229" transform="translate(176,168)"/>
<path d="M0 0 C-1.32 0.33 -2.64 0.66 -4 1 C-4.33 3.31 -4.66 5.62 -5 8 C-7 7 -7 7 -9 5 C-12.16115776 6.36983503 -12.9927092 6.9890638 -15 10 C-18.3006216 11.01557588 -19.67212881 11.1092904 -23 10 C-23 9.34 -23 8.68 -23 8 C-20.730384 6.85170023 -18.45939222 5.70628022 -16.1875 4.5625 C-15.54490234 4.23701172 -14.90230469 3.91152344 -14.24023438 3.57617188 C-9.17455669 1.03020951 -5.67301303 -0.12606696 0 0 Z " fill="#18AF4C" transform="translate(619,96)"/>
<path d="M0 0 C0.66 0 1.32 0 2 0 C1.67 1.32 1.34 2.64 1 4 C0.34 4 -0.32 4 -1 4 C-1.1546875 5.5778125 -1.1546875 5.5778125 -1.3125 7.1875 C-1.97949332 10.88628113 -2.74990008 13.02986811 -5 16 C-5.66 16 -6.32 16 -7 16 C-7 16.99 -7 17.98 -7 19 C-7.66 19 -8.32 19 -9 19 C-9.33 16.69 -9.66 14.38 -10 12 C-9.67 12.66 -9.34 13.32 -9 14 C-8.01 14 -7.02 14 -6 14 C-6.61277612 11.03824877 -7.25372522 9.61941217 -9 7 C-8.2575 6.5875 -7.515 6.175 -6.75 5.75 C-3.94915692 4.10733538 -3.94915692 4.10733538 -1.8125 1.8125 C-1.214375 1.214375 -0.61625 0.61625 0 0 Z " fill="#4DAE28" transform="translate(128,148)"/>
<path d="M0 0 C1.27617188 0.00483398 1.27617188 0.00483398 2.578125 0.00976562 C3.46757813 0.01814453 4.35703125 0.02652344 5.2734375 0.03515625 C6.170625 0.03966797 7.0678125 0.04417969 7.9921875 0.04882812 C10.21100398 0.06063034 12.42968768 0.0770947 14.6484375 0.09765625 C14.07498813 2.96490311 13.786986 3.95910775 11.6484375 6.09765625 C11.3184375 4.77765625 10.9884375 3.45765625 10.6484375 2.09765625 C6.0284375 2.09765625 1.4084375 2.09765625 -3.3515625 2.09765625 C-3.0215625 4.73765625 -2.6915625 7.37765625 -2.3515625 10.09765625 C-3.3415625 10.09765625 -4.3315625 10.09765625 -5.3515625 10.09765625 C-5.6815625 7.12765625 -6.0115625 4.15765625 -6.3515625 1.09765625 C-4.00303722 -0.07660639 -2.61382185 -0.01742548 0 0 Z " fill="#24AB51" transform="translate(747.3515625,121.90234375)"/>
<path d="M0 0 C0.66 0 1.32 0 2 0 C2.19335938 0.69867188 2.38671875 1.39734375 2.5859375 2.1171875 C2.84632813 3.02726563 3.10671875 3.93734375 3.375 4.875 C3.63023437 5.77992188 3.88546875 6.68484375 4.1484375 7.6171875 C4.8604315 10.14569726 4.8604315 10.14569726 7 12 C7.125 14.625 7.125 14.625 7 17 C7.66 17 8.32 17 9 17 C9.268125 17.598125 9.53625 18.19625 9.8125 18.8125 C11.00646348 21.01190641 12.17119007 22.31749487 14 24 C15 25 16 26 17 27 C16.67 27.66 16.34 28.32 16 29 C13.5625 28.1875 13.5625 28.1875 11 27 C10.67 26.01 10.34 25.02 10 24 C9.34 23.67 8.68 23.34 8 23 C8 22.01 8 21.02 8 20 C7.34 20 6.68 20 6 20 C0.44419134 6.3667426 0.44419134 6.3667426 0 0 Z " fill="#16B945" transform="translate(580,146)"/>
<path d="M0 0 C2.44897847 3.67346771 2.31537716 5.66356399 2 10 C1.34 10.66 0.68 11.32 0 12 C-0.20496073 14.14426283 -0.20496073 14.14426283 -0.0625 16.5 C0.09818731 20.80362538 0.09818731 20.80362538 -1 23 C-1.66 23 -2.32 23 -3 23 C-2.67 26.3 -2.34 29.6 -2 33 C-2.33 33 -2.66 33 -3 33 C-3.42001585 31.44382618 -3.81003794 29.87953946 -4.1875 28.3125 C-4.40792969 27.44238281 -4.62835938 26.57226562 -4.85546875 25.67578125 C-5.04139811 22.2335756 -3.75741124 20.90988444 -2 18 C-1.71285275 14.81394767 -1.71285275 14.81394767 -1.9375 11.5 C-2.13984768 7.05872774 -1.93417613 4.03392376 0 0 Z " fill="#54A432" transform="translate(207,80)"/>
<path d="M0 0 C0.66 0.33 1.32 0.66 2 1 C1.99476318 1.68102783 1.98952637 2.36205566 1.98413086 3.0637207 C1.96335542 6.14663777 1.95033802 9.2295401 1.9375 12.3125 C1.92912109 13.38435547 1.92074219 14.45621094 1.91210938 15.56054688 C1.90888672 16.58857422 1.90566406 17.61660156 1.90234375 18.67578125 C1.89710693 19.62364502 1.89187012 20.57150879 1.88647461 21.5480957 C1.89501146 24.13838681 1.89501146 24.13838681 3 27 C6.00007271 28.70855022 6.00007271 28.70855022 9 30 C9 30.66 9 31.32 9 32 C5.95613276 32.08226668 3.92824652 31.97608217 1 31 C-1.42451075 27.36323388 -1.17129076 25.88552585 -0.9765625 21.58203125 C-0.925 20.32841797 -0.8734375 19.07480469 -0.8203125 17.78320312 C-0.75585938 16.47287109 -0.69140625 15.16253906 -0.625 13.8125 C-0.56674184 12.47725536 -0.50943894 11.14196867 -0.453125 9.80664062 C-0.31148964 6.5372245 -0.16005905 3.26855758 0 0 Z " fill="#20A94E" transform="translate(815,139)"/>
<path d="M0 0 C0.33 1.32 0.66 2.64 1 4 C1.66 4 2.32 4 3 4 C2.34 5.98 1.68 7.96 1 10 C1.66 10.33 2.32 10.66 3 11 C1.35 11.66 -0.3 12.32 -2 13 C-1.97679687 13.62648437 -1.95359375 14.25296875 -1.9296875 14.8984375 C-1.91164063 15.71570313 -1.89359375 16.53296875 -1.875 17.375 C-1.85179687 18.18710938 -1.82859375 18.99921875 -1.8046875 19.8359375 C-2 22 -2 22 -4 24 C-4 20.04 -4 16.08 -4 12 C-3.34 12 -2.68 12 -2 12 C-2.33 10.02 -2.66 8.04 -3 6 C-2.01 5.67 -1.02 5.34 0 5 C-0.33 4.01 -0.66 3.02 -1 2 C-0.67 1.34 -0.34 0.68 0 0 Z " fill="#0E0F1C" transform="translate(379,135)"/>
<path d="M0 0 C-0.33 0.66 -0.66 1.32 -1 2 C-2.7537843 2.50149534 -4.52950272 2.92756151 -6.3125 3.3125 C-11.15297094 4.53357611 -13.26787719 5.67413888 -16 10 C-16.99 10.33 -17.98 10.66 -19 11 C-20.21869929 13.50447516 -20.21869929 13.50447516 -21 16 C-21.66 16 -22.32 16 -23 16 C-23.125 11.25 -23.125 11.25 -22 9 C-21.01 8.67 -20.02 8.34 -19 8 C-18.5875 7.566875 -18.175 7.13375 -17.75 6.6875 C-12.66822858 1.78722042 -6.96026983 -0.19334083 0 0 Z " fill="#27A954" transform="translate(697,121)"/>
<path d="M0 0 C0.66 0.99 1.32 1.98 2 3 C1.01 4.485 1.01 4.485 0 6 C0 6.66 0 7.32 0 8 C-1.53270571 9.35135503 -3.12776773 10.63253887 -4.75 11.875 C-8.05847675 14.41923797 -11.10846654 16.98685999 -14 20 C-13.52322369 14.43760971 -10.38741818 12.03372659 -6.3125 8.5625 C-4.40960394 6.29714755 -3.81190625 3.8104447 -3 1 C-2.34 1.33 -1.68 1.66 -1 2 C-0.67 1.34 -0.34 0.68 0 0 Z " fill="#56A626" transform="translate(167,108)"/>
<path d="M0 0 C0.33 1.32 0.66 2.64 1 4 C0.071875 4.309375 0.071875 4.309375 -0.875 4.625 C-3.85705983 6.55456812 -3.99840282 8.66134274 -5 12 C-5.474375 12.61875 -5.94875 13.2375 -6.4375 13.875 C-8.37859463 16.51488869 -9.186901 19.18297405 -10.15625 22.29296875 C-10.4346875 22.85628906 -10.713125 23.41960937 -11 24 C-11.99 24.33 -12.98 24.66 -14 25 C-14.33 24.01 -14.66 23.02 -15 22 C-14.34 22 -13.68 22 -13 22 C-12.88591797 21.42403076 -12.77183594 20.84806152 -12.65429688 20.25463867 C-11.93877852 17.78903716 -10.93711764 16.0691243 -9.53125 13.92578125 C-9.04269531 13.17619141 -8.55414063 12.42660156 -8.05078125 11.65429688 C-7.53902344 10.88150391 -7.02726563 10.10871094 -6.5 9.3125 C-5.98824219 8.52810547 -5.47648438 7.74371094 -4.94921875 6.93554688 C-1.17569314 1.17569314 -1.17569314 1.17569314 0 0 Z " fill="#54A430" transform="translate(152,128)"/>
<path d="M0 0 C1 3 1 3 0 5.625 C-2 8 -2 8 -5.25 8.4375 C-10.216626 9.1824939 -12.52574416 11.54686426 -16 15 C-16.66 14.67 -17.32 14.34 -18 14 C-12.30568506 8.64407672 -6.79015597 3.8980525 0 0 Z " fill="#52AA2B" transform="translate(150,85)"/>
<path d="M0 0 C1.48828125 1.05078125 1.48828125 1.05078125 3 3 C3.29296875 6.35546875 3.29296875 6.35546875 3.1875 10.1875 C3.16042969 11.45980469 3.13335937 12.73210937 3.10546875 14.04296875 C3.07066406 15.01878906 3.03585937 15.99460938 3 17 C1.35 17.66 -0.3 18.32 -2 19 C-2.26315789 4.52631579 -2.26315789 4.52631579 0 0 Z M1 7 C1 9.64 1 12.28 1 15 C1.33 15 1.66 15 2 15 C2 12.36 2 9.72 2 7 C1.67 7 1.34 7 1 7 Z " fill="#0F1119" transform="translate(373,121)"/>
<path d="M0 0 C0.33 0.99 0.66 1.98 1 3 C-0.65 3.33 -2.3 3.66 -4 4 C-3.01 4.33 -2.02 4.66 -1 5 C-1 5.66 -1 6.32 -1 7 C-4.375 7.625 -4.375 7.625 -8 8 C-8.66 7.34 -9.32 6.68 -10 6 C-9.625 3.875 -9.625 3.875 -9 2 C-2.25 0 -2.25 0 0 0 Z " fill="#11B743" transform="translate(795,121)"/>
<path d="M0 0 C0.66 0.33 1.32 0.66 2 1 C1.67 2.65 1.34 4.3 1 6 C-6.20406158 7.82960294 -12.64224229 8.78369884 -20 7 C-16.20836973 4.47224649 -13.19125969 4.77556965 -8.8125 4.875 C-8.06291016 4.88402344 -7.31332031 4.89304688 -6.54101562 4.90234375 C-4.69387346 4.92587422 -2.84689588 4.96174439 -1 5 C-0.67 3.35 -0.34 1.7 0 0 Z " fill="#1DA44B" transform="translate(831,178)"/>
<path d="M0 0 C0.33 0.99 0.66 1.98 1 3 C0.01 4.485 0.01 4.485 -1 6 C-1 6.99 -1 7.98 -1 9 C-1.66 9.66 -2.32 10.32 -3 11 C-6.01305957 10.61121812 -7.39685311 9.73543126 -10 8 C-9.360625 7.71125 -8.72125 7.4225 -8.0625 7.125 C-5.84793921 6.17176549 -5.84793921 6.17176549 -5 4 C-3.35704805 2.63755204 -1.69175663 1.30135125 0 0 Z " fill="#131B26" transform="translate(391,124)"/>
<path d="M0 0 C0.99 0 1.98 0 3 0 C1.63436578 5.21423975 -0.29048618 8.20216442 -4 12 C-6.3125 12.875 -6.3125 12.875 -8 13 C-7.67 11.35 -7.34 9.7 -7 8 C-6.34 8 -5.68 8 -5 8 C-4.731875 7.4225 -4.46375 6.845 -4.1875 6.25 C-2.9611378 3.92636635 -1.75156566 1.96175354 0 0 Z " fill="#1CA84A" transform="translate(593,107)"/>
<path d="M0 0 C0.33 0 0.66 0 1 0 C1 2.31 1 4.62 1 7 C-2.54292099 8.7714605 -6.61824444 7.89494375 -10.5 7.6875 C-11.38042969 7.65205078 -12.26085937 7.61660156 -13.16796875 7.58007812 C-14.43060547 7.51530273 -14.43060547 7.51530273 -15.71875 7.44921875 C-16.49154297 7.41143311 -17.26433594 7.37364746 -18.06054688 7.3347168 C-20 7 -20 7 -22 5 C-21.67 4.01 -21.34 3.02 -21 2 C-20.34 2.33 -19.68 2.66 -19 3 C-19 3.99 -19 4.98 -19 6 C-16.37251369 5.94014838 -13.75083005 5.85323776 -11.125 5.75 C-10.37863281 5.73582031 -9.63226562 5.72164062 -8.86328125 5.70703125 C-6.42861619 5.64013659 -6.42861619 5.64013659 -3 5 C-1.45811659 3.12847392 -1.45811659 3.12847392 -1 1 C-0.67 0.67 -0.34 0.34 0 0 Z " fill="#1FB854" transform="translate(731,177)"/>
<path d="M0 0 C1.32 0.33 2.64 0.66 4 1 C3.21718695 2.33855056 2.42348123 3.67073644 1.625 5 C1.18414062 5.7425 0.74328125 6.485 0.2890625 7.25 C-0.34902344 8.11625 -0.34902344 8.11625 -1 9 C-1.66 9 -2.32 9 -3 9 C-3 9.66 -3 10.32 -3 11 C-3.66 11 -4.32 11 -5 11 C-5 11.66 -5 12.32 -5 13 C-5.66 13 -6.32 13 -7 13 C-7 13.66 -7 14.32 -7 15 C-9 16.625 -9 16.625 -11 18 C-10.67 16.68 -10.34 15.36 -10 14 C-9.34 14 -8.68 14 -8 14 C-8 13.34 -8 12.68 -8 12 C-7.34 12 -6.68 12 -6 12 C-5.67 10.68 -5.34 9.36 -5 8 C-4.34 8 -3.68 8 -3 8 C-3 7.01 -3 6.02 -3 5 C-2.34 5 -1.68 5 -1 5 C-0.67 3.35 -0.34 1.7 0 0 Z " fill="#4CA22A" transform="translate(189,148)"/>
<path d="M0 0 C0.66 0 1.32 0 2 0 C5.76957723 8.04760906 7.17401319 14.1253271 7 23 C6.67 23 6.34 23 6 23 C6 20.69 6 18.38 6 16 C5.34 16 4.68 16 4 16 C2.68 10.72 1.36 5.44 0 0 Z " fill="#1F9D5A" transform="translate(725,129)"/>
<path d="M0 0 C0.66 0.66 1.32 1.32 2 2 C4.9093558 2.14517744 7.719946 2.18630796 10.625 2.125 C11.82769531 2.11146484 11.82769531 2.11146484 13.0546875 2.09765625 C15.03658523 2.07406223 17.01832981 2.03819065 19 2 C19 2.99 19 3.98 19 5 C16.04142591 5.05379226 13.08382279 5.09357093 10.125 5.125 C8.86236328 5.15013672 8.86236328 5.15013672 7.57421875 5.17578125 C6.76855469 5.18222656 5.96289062 5.18867188 5.1328125 5.1953125 C4.38918457 5.20578613 3.64555664 5.21625977 2.87939453 5.22705078 C1 5 1 5 -1 3 C-0.67 2.01 -0.34 1.02 0 0 Z " fill="#259C52" transform="translate(742,180)"/>
<path d="M0 0 C1.2065625 0.0309375 1.2065625 0.0309375 2.4375 0.0625 C2.7675 2.3725 3.0975 4.6825 3.4375 7.0625 C0.42718256 7.99673645 -0.42900268 8.10699911 -3.5625 7.0625 C-3.60504356 5.06295254 -3.60330783 3.06208364 -3.5625 1.0625 C-2.5625 0.0625 -2.5625 0.0625 0 0 Z " fill="#46B62C" transform="translate(106.5625,187.9375)"/>
<path d="M0 0 C1.32 0.33 2.64 0.66 4 1 C4 1.33 4 1.66 4 2 C4.66 2.33 5.32 2.66 6 3 C6 4.65 6 6.3 6 8 C4.35 8.33 2.7 8.66 1 9 C-2 4.25 -2 4.25 -2 2 C-1.34 2 -0.68 2 0 2 C0 1.34 0 0.68 0 0 Z " fill="#41B216" transform="translate(126,177)"/>
<path d="M0 0 C0.66 0 1.32 0 2 0 C0.25731793 3.96064107 -2.14674729 7.74436549 -5 11 C-5.66 11 -6.32 11 -7 11 C-7.061875 11.7425 -7.12375 12.485 -7.1875 13.25 C-8.24185138 16.8185739 -9.99909773 17.92245228 -13 20 C-12.49096406 15.54593551 -10.92257804 13.34008918 -8 10 C-7.34 9.175 -6.68 8.35 -6 7.5 C-5.34 6.675 -4.68 5.85 -4 5 C-3.29875 4.071875 -2.5975 3.14375 -1.875 2.1875 C-1.25625 1.465625 -0.6375 0.74375 0 0 Z " fill="#55A932" transform="translate(144,125)"/>
<path d="M0 0 C0.99 0 1.98 0 3 0 C4.8958357 2.43750304 6 4.05695832 6 7.1875 C5 9 5 9 2.6875 10.3125 C-0.07651653 11.019574 -1.36660729 10.97533063 -4 10 C-4 9.01 -4 8.02 -4 7 C-1.69 7 0.62 7 3 7 C1.60240095 3.45481116 1.60240095 3.45481116 0 0 Z " fill="#20AA51" transform="translate(660,114)"/>
<path d="M0 0 C8.85274493 0.58215329 15.43063293 3.52017051 23 8 C23 8.33 23 8.66 23 9 C20.625 9.125 20.625 9.125 18 9 C17.34 8.34 16.68 7.68 16 7 C15.01 6.67 14.02 6.34 13 6 C13 5.34 13 4.68 13 4 C12.05125 4.020625 11.1025 4.04125 10.125 4.0625 C7 4 7 4 5 3 C5 2.34 5 1.68 5 1 C3.35 1 1.7 1 0 1 C0 0.67 0 0.34 0 0 Z " fill="#22A952" transform="translate(631,96)"/>
<path d="M0 0 C2.97 1.32 5.94 2.64 9 4 C8 6 8 6 6.15234375 6.6328125 C5.05599609 6.87644531 5.05599609 6.87644531 3.9375 7.125 C3.20402344 7.29257813 2.47054688 7.46015625 1.71484375 7.6328125 C1.14894531 7.75398438 0.58304687 7.87515625 0 8 C-1.125 6.25 -1.125 6.25 -2 4 C-1.34 2.68 -0.68 1.36 0 0 Z " fill="#232731" transform="translate(412,119)"/>
<path d="M0 0 C3.63 0 7.26 0 11 0 C10.34 1.32 9.68 2.64 9 4 C6.03 3.505 6.03 3.505 3 3 C2.67 3.66 2.34 4.32 2 5 C1.01 4.67 0.02 4.34 -1 4 C-0.67 2.68 -0.34 1.36 0 0 Z " fill="#55A626" transform="translate(52,122)"/>
<path d="M0 0 C6.45512034 -0.56131481 11.15439723 1.36536213 17 4 C17 4.33 17 4.66 17 5 C15.10333474 4.91227545 13.20761007 4.80408699 11.3125 4.6875 C10.25675781 4.62949219 9.20101562 4.57148438 8.11328125 4.51171875 C4.75735089 3.96011665 2.74188745 2.97883899 0 1 C0 0.67 0 0.34 0 0 Z " fill="#1CAB4B" transform="translate(606,181)"/>
<path d="M0 0 C0.33 0.66 0.66 1.32 1 2 C0.41992188 1.96519531 -0.16015625 1.93039063 -0.7578125 1.89453125 C-6.05557304 1.71094549 -9.31740097 2.25896642 -14 5 C-14.66 5 -15.32 5 -16 5 C-16.66 6.98 -17.32 8.96 -18 11 C-18.33 11 -18.66 11 -19 11 C-19.25 8.1875 -19.25 8.1875 -19 5 C-13.9905514 -0.3947908 -6.82837905 -0.27313516 0 0 Z " fill="#299E55" transform="translate(781,138)"/>
<path d="M0 0 C0.66 0 1.32 0 2 0 C3.34383934 4.62877994 3.10850248 9.33465044 2 14 C1.01 14.495 1.01 14.495 0 15 C-1.60116168 10.19651495 -1.6117046 4.8351138 0 0 Z " fill="#1CAB4E" transform="translate(581,130)"/>
<path d="M0 0 C0.34675781 0.44988281 0.69351563 0.89976562 1.05078125 1.36328125 C3.83787923 3.7035499 6.69016196 4.25701557 10.1875 5.1875 C11.45980469 5.53167969 12.73210938 5.87585938 14.04296875 6.23046875 C15.01878906 6.48441406 15.99460937 6.73835937 17 7 C17 7.33 17 7.66 17 8 C10.54107286 8.40368295 5.93891422 7.5915262 0 5 C0 3.35 0 1.7 0 0 Z " fill="#1AAE4B" transform="translate(677,177)"/>
<path d="M0 0 C4.49014624 1.49671541 8.47848764 3.83368341 12 7 C12 7.66 12 8.32 12 9 C12.66 9 13.32 9 14 9 C14 9.99 14 10.98 14 12 C12.68 12.33 11.36 12.66 10 13 C10.33 11.68 10.66 10.36 11 9 C10.34 9 9.68 9 9 9 C9 8.34 9 7.68 9 7 C8.443125 6.731875 7.88625 6.46375 7.3125 6.1875 C4.78774666 4.89100504 2.36285516 3.57523677 0 2 C0 1.34 0 0.68 0 0 Z " fill="#53A22F" transform="translate(86,130)"/>
<path d="M0 0 C3.55780196 0.60990891 6.6828589 1.5783681 10 3 C9.67 3.61875 9.34 4.2375 9 4.875 C7.85806765 6.91018344 7.85806765 6.91018344 8 9 C6.0625 8.6875 6.0625 8.6875 4 8 C3.67 7.01 3.34 6.02 3 5 C2.34 5 1.68 5 1 5 C0.67 3.35 0.34 1.7 0 0 Z " fill="#43B529" transform="translate(102,172)"/>
<path d="M0 0 C3.34097157 2.99535382 5.39978035 5.78889565 7 10 C6.6875 13.375 6.6875 13.375 6 16 C5.57074219 15.13375 5.57074219 15.13375 5.1328125 14.25 C4.41523852 12.82474961 3.68260001 11.40690221 2.9296875 10 C2.58164063 9.34 2.23359375 8.68 1.875 8 C1.52179688 7.34 1.16859375 6.68 0.8046875 6 C0 4 0 4 0 0 Z " fill="#61A034" transform="translate(103,144)"/>
<path d="M0 0 C0.66 0.33 1.32 0.66 2 1 C4.09821215 0.60061233 4.09821215 0.60061233 6 0 C5.25 4.75 5.25 4.75 3 7 C3 6.34 3 5.68 3 5 C1.68 5 0.36 5 -1 5 C-1.33 5.99 -1.66 6.98 -2 8 C-2.66 7.67 -3.32 7.34 -4 7 C-2.68 4.69 -1.36 2.38 0 0 Z " fill="#4CAB21" transform="translate(136,153)"/>
<path d="M0 0 C-0.33 0.66 -0.66 1.32 -1 2 C-1.61875 2.144375 -2.2375 2.28875 -2.875 2.4375 C-5.07987896 2.80928794 -5.07987896 2.80928794 -6.3125 4.5 C-8.89757027 6.79784024 -11.64796938 6.6837707 -15 7 C-15 6.34 -15 5.68 -15 5 C-3.63636364 -1.81818182 -3.63636364 -1.81818182 0 0 Z " fill="#54B22E" transform="translate(167,79)"/>
<path d="M0 0 C0.66 0.33 1.32 0.66 2 1 C2 2.65 2 4.3 2 6 C3.32 6.66 4.64 7.32 6 8 C6 8.66 6 9.32 6 10 C4.35 10 2.7 10 1 10 C0.67 10.66 0.34 11.32 0 12 C-1.1898306 9.6203388 -1.13349966 8.08514265 -1.125 5.4375 C-1.12886719 4.22900391 -1.12886719 4.22900391 -1.1328125 2.99609375 C-1 1 -1 1 0 0 Z " fill="#23A548" transform="translate(690,162)"/>
<path d="M0 0 C0 3.3 0 6.6 0 10 C-0.33 9.34 -0.66 8.68 -1 8 C-2.32 8.33 -3.64 8.66 -5 9 C-5 6.69 -5 4.38 -5 2 C-1.125 0 -1.125 0 0 0 Z " fill="#13161F" transform="translate(502,161)"/>
<path d="M0 0 C0.66 0 1.32 0 2 0 C2.32613618 4.67461851 1.70582788 7.16674383 -1 11 C-3 10 -3 10 -4 7 C-3.34 7 -2.68 7 -2 7 C-2 5.68 -2 4.36 -2 3 C-1.34 3 -0.68 3 0 3 C0 2.01 0 1.02 0 0 Z " fill="#13B04E" transform="translate(712,160)"/>
<path d="M0 0 C0.66 1.32 1.32 2.64 2 4 C1.01 4.66 0.02 5.32 -1 6 C-1.57993699 8.19454681 -1.57993699 8.19454681 -1.6875 10.625 C-1.75324219 11.44226563 -1.81898438 12.25953125 -1.88671875 13.1015625 C-1.92410156 13.72804687 -1.96148437 14.35453125 -2 15 C-3.65 15.33 -5.3 15.66 -7 16 C-6.67 15.01 -6.34 14.02 -6 13 C-5.690625 12.05125 -5.38125 11.1025 -5.0625 10.125 C-4.12677145 7.37285722 -3.1064511 4.68709552 -2 2 C-1.34 2 -0.68 2 0 2 C0 1.34 0 0.68 0 0 Z " fill="#55A52E" transform="translate(132,162)"/>
<path d="M0 0 C4.56454251 0.54339792 7.9728176 1.79463821 12 4 C11.67 4.99 11.34 5.98 11 7 C8.9375 7.6875 8.9375 7.6875 7 8 C7 7.01 7 6.02 7 5 C6.01 4.67 5.02 4.34 4 4 C4 3.34 4 2.68 4 2 C2.68 1.67 1.36 1.34 0 1 C0 0.67 0 0.34 0 0 Z " fill="#4FA929" transform="translate(73,125)"/>
<path d="M0 0 C0 4.01094227 -1.76100999 5.74328725 -4 9 C-4.33 9.99 -4.66 10.98 -5 12 C-5.66 12 -6.32 12 -7 12 C-7 13.32 -7 14.64 -7 16 C-7.99 15.67 -8.98 15.34 -10 15 C-9.09238938 13.24528614 -8.17349289 11.49640736 -7.25 9.75 C-6.73953125 8.77546875 -6.2290625 7.8009375 -5.703125 6.796875 C-4.05180119 4.08506801 -2.33508701 2.13203597 0 0 Z " fill="#57AA2E" transform="translate(131,101)"/>
<path d="M0 0 C0.66 0 1.32 0 2 0 C3.23777853 1.9354886 4.3916509 3.92509495 5.5 5.9375 C7.53770258 10.18129859 7.53770258 10.18129859 11 13 C10.67 13.99 10.34 14.98 10 16 C0 5.33333333 0 5.33333333 0 0 Z " fill="#50A72E" transform="translate(59,159)"/>
<path d="M0 0 C2.31 0.33 4.62 0.66 7 1 C7 1.66 7 2.32 7 3 C9.31 3.33 11.62 3.66 14 4 C11 6 11 6 9.25 5.8125 C6.10196309 4.67570889 3.06125021 3.35401451 0 2 C0 1.34 0 0.68 0 0 Z " fill="#1BA94C" transform="translate(653,155)"/>
<path d="M0 0 C2.97 0 5.94 0 9 0 C9.33 3.63 9.66 7.26 10 11 C9.67 9.68 9.34 8.36 9 7 C8.34 7 7.68 7 7 7 C7 6.34 7 5.68 7 5 C4.76851178 3.15325113 2.41191247 1.60794165 0 0 Z " fill="#22A254" transform="translate(703,135)"/>
<path d="M0 0 C0.66 0.66 1.32 1.32 2 2 C1.96712417 4.72869407 1.43602229 7.2966618 1 10 C0.01 10 -0.98 10 -2 10 C-1.85950482 8.52031676 -1.71245174 7.04125484 -1.5625 5.5625 C-1.48128906 4.73878906 -1.40007812 3.91507812 -1.31640625 3.06640625 C-1 1 -1 1 0 0 Z " fill="#4AAF24" transform="translate(199,124)"/>
<path d="M0 0 C2.1875 1.4375 2.1875 1.4375 4 3 C3.67 3.99 3.34 4.98 3 6 C2.01 6 1.02 6 0 6 C0 5.34 0 4.68 0 4 C-0.66 4 -1.32 4 -2 4 C-2.33 4.66 -2.66 5.32 -3 6 C-3 4.35 -3 2.7 -3 1 C-2.01 0.67 -1.02 0.34 0 0 Z " fill="#44B01D" transform="translate(119,156)"/>
<path d="M0 0 C3.63 0 7.26 0 11 0 C11.66 1.32 12.32 2.64 13 4 C11.01926635 3.719172 9.04041552 3.42503386 7.0625 3.125 C5.40927734 2.88136719 5.40927734 2.88136719 3.72265625 2.6328125 C2.82417969 2.42398438 1.92570313 2.21515625 1 2 C0.67 1.34 0.34 0.68 0 0 Z " fill="#16A854" transform="translate(624,112)"/>
<path d="M0 0 C5.94 0 11.88 0 18 0 C18 0.33 18 0.66 18 1 C17.10796875 1.04898438 16.2159375 1.09796875 15.296875 1.1484375 C14.12640625 1.22320312 12.9559375 1.29796875 11.75 1.375 C10.00976562 1.47941406 10.00976562 1.47941406 8.234375 1.5859375 C5.29305666 1.96248308 3.50050989 2.4774123 1 4 C0.67 2.68 0.34 1.36 0 0 Z " fill="#24A44E" transform="translate(797,104)"/>
<path d="M0 0 C2.64 0 5.28 0 8 0 C9.125 1.75 9.125 1.75 10 4 C9.125 6.25 9.125 6.25 8 8 C8 6.68 8 5.36 8 4 C7.4225 3.896875 6.845 3.79375 6.25 3.6875 C3.67950842 2.90207202 2.06342716 1.69495803 0 0 Z " fill="#52AE31" transform="translate(201,71)"/>
<path d="M0 0 C1.32 0.66 2.64 1.32 4 2 C3.01 2.495 3.01 2.495 2 3 C0.86649466 5.01669827 0.86649466 5.01669827 0 7 C-1.32 6.67 -2.64 6.34 -4 6 C-3.67 5.01 -3.34 4.02 -3 3 C-2.34 3 -1.68 3 -1 3 C-0.67 2.01 -0.34 1.02 0 0 Z " fill="#12B74A" transform="translate(762,126)"/>
<path d="M0 0 C0.66 0 1.32 0 2 0 C1.67 1.65 1.34 3.3 1 5 C0.34 5 -0.32 5 -1 5 C-1 5.99 -1 6.98 -1 8 C-1.66 8 -2.32 8 -3 8 C-3.33 5.69 -3.66 3.38 -4 1 C-3.67 1.66 -3.34 2.32 -3 3 C-2.01 3 -1.02 3 0 3 C0 2.01 0 1.02 0 0 Z " fill="#5DA736" transform="translate(122,159)"/>
<path d="M0 0 C1.62463842 -0.05395478 3.24978541 -0.09277195 4.875 -0.125 C5.77992188 -0.14820313 6.68484375 -0.17140625 7.6171875 -0.1953125 C10 0 10 0 12 2 C7.38926889 3.29676812 3.66159911 2.71109139 -1 2 C-0.67 1.34 -0.34 0.68 0 0 Z " fill="#28AE54" transform="translate(697,146)"/>
<path d="M0 0 C0.33 1.32 0.66 2.64 1 4 C1.99 4 2.98 4 4 4 C4 4.66 4 5.32 4 6 C3.01 6.33 2.02 6.66 1 7 C0.67 7.99 0.34 8.98 0 10 C-0.66 10 -1.32 10 -2 10 C-2.33 8.68 -2.66 7.36 -3 6 C-2.34 6 -1.68 6 -1 6 C-0.67 4.02 -0.34 2.04 0 0 Z " fill="#57AD45" transform="translate(121,193)"/>
<path d="M0 0 C1.52299523 2.93720508 2.80100302 5.9168649 4 9 C2.68 8.67 1.36 8.34 0 8 C-0.12375 7.195625 -0.2475 6.39125 -0.375 5.5625 C-0.684375 4.2940625 -0.684375 4.2940625 -1 3 C-1.66 2.67 -2.32 2.34 -3 2 C-2.01 1.34 -1.02 0.68 0 0 Z " fill="#4A9F2B" transform="translate(100,162)"/>
<path d="M0 0 C2.31 0.33 4.62 0.66 7 1 C6.01 1.495 6.01 1.495 5 2 C4.67 2.66 4.34 3.32 4 4 C3.01 4.66 2.02 5.32 1 6 C0.34 5.34 -0.32 4.68 -1 4 C-0.625 1.875 -0.625 1.875 0 0 Z " fill="#222531" transform="translate(393,145)"/>
<path d="M0 0 C2 2 2 2 2.0625 4.5625 C2.041875 5.366875 2.02125 6.17125 2 7 C2.33 7.33 2.66 7.66 3 8 C3.04063832 9.66617115 3.042721 11.33388095 3 13 C2.34 13 1.68 13 1 13 C-0.00496852 9.98509443 -0.10335303 7.95818308 -0.0625 4.8125 C-0.05347656 3.91144531 -0.04445313 3.01039063 -0.03515625 2.08203125 C-0.02355469 1.39496094 -0.01195312 0.70789063 0 0 Z " fill="#20A555" transform="translate(599,138)"/>
<path d="M0 0 C3 1 3 1 4.1875 3.0625 C4.455625 3.701875 4.72375 4.34125 5 5 C3.35 5.33 1.7 5.66 0 6 C0 5.01 0 4.02 0 3 C-0.99 3.33 -1.98 3.66 -3 4 C-2.67 3.01 -2.34 2.02 -2 1 C-1.34 0.67 -0.68 0.34 0 0 Z " fill="#33B310" transform="translate(100,174)"/>
<path d="M0 0 C0.99 0 1.98 0 3 0 C3.33 0.33 3.66 0.66 4 1 C4.99 1.33 5.98 1.66 7 2 C6.67 2.99 6.34 3.98 6 5 C5.01 4.67 4.02 4.34 3 4 C2.67 4.66 2.34 5.32 2 6 C2 5.34 2 4.68 2 4 C1.01 3.67 0.02 3.34 -1 3 C-0.67 2.01 -0.34 1.02 0 0 Z " fill="#53AD18" transform="translate(97,170)"/>
<path d="M0 0 C-1.36944102 2.94956528 -2.87830409 5.52468811 -5 8 C-5.66 8 -6.32 8 -7 8 C-7.3125 5.6875 -7.3125 5.6875 -7 3 C-4.6167054 1.18116991 -3.04181663 0 0 0 Z " fill="#239E54" transform="translate(663,167)"/>
<path d="M0 0 C1 3 1 3 0.25 5.125 C-1 7 -1 7 -4 8 C-4.33 7.01 -4.66 6.02 -5 5 C-4.34 5 -3.68 5 -3 5 C-2.87625 4.360625 -2.7525 3.72125 -2.625 3.0625 C-2.41875 2.381875 -2.2125 1.70125 -2 1 C-1.34 0.67 -0.68 0.34 0 0 Z " fill="#50AE25" transform="translate(142,145)"/>
<path d="M0 0 C1.98 0 3.96 0 6 0 C6.33 1.32 6.66 2.64 7 4 C7.66 4 8.32 4 9 4 C9 4.66 9 5.32 9 6 C8.1646875 5.566875 8.1646875 5.566875 7.3125 5.125 C4.91505355 3.9586747 2.48403061 2.9660119 0 2 C0 1.34 0 0.68 0 0 Z " fill="#1BAD4E" transform="translate(652,107)"/>
<path d="M0 0 C0.33 0 0.66 0 1 0 C1 2.31 1 4.62 1 7 C-1.6666419 8.33332095 -3.16680303 7.67102033 -6 7 C-5.01 6.34 -4.02 5.68 -3 5 C-1.86649466 2.98330173 -1.86649466 2.98330173 -1 1 C-0.67 0.67 -0.34 0.34 0 0 Z " fill="#21AB52" transform="translate(731,177)"/>
<path d="M0 0 C0.66 0 1.32 0 2 0 C2.53341184 1.57914015 3.05125763 3.16354387 3.5625 4.75 C3.85253906 5.63171875 4.14257812 6.5134375 4.44140625 7.421875 C5.01697435 10.07834316 4.89248371 11.47031106 4 14 C1.77343836 9.25645564 0.53851968 5.27749285 0 0 Z " fill="#24964C" transform="translate(580,146)"/>
<path d="M0 0 C1.98362069 2.91708924 1.9876191 4.12380904 1.625 7.75 C1.41875 8.8225 1.2125 9.895 1 11 C0.34 11 -0.32 11 -1 11 C-1.02688151 9.35425434 -1.04634123 7.70838587 -1.0625 6.0625 C-1.07410156 5.14597656 -1.08570313 4.22945312 -1.09765625 3.28515625 C-1 1 -1 1 0 0 Z " fill="#0ED32E" transform="translate(797,143)"/>
<path d="M0 0 C0.99 0.33 1.98 0.66 3 1 C1.37660195 2.70884005 -0.29319053 4.37446717 -2 6 C-2.66 6 -3.32 6 -4 6 C-4.33 4.68 -4.66 3.36 -5 2 C-4.34 1.67 -3.68 1.34 -3 1 C-2.01 1.33 -1.02 1.66 0 2 C0 1.34 0 0.68 0 0 Z " fill="#1FA24C" transform="translate(609,117)"/>
<path d="M0 0 C-0.33 1.32 -0.66 2.64 -1 4 C-1.66 4 -2.32 4 -3 4 C-2.67 7.3 -2.34 10.6 -2 14 C-2.33 14 -2.66 14 -3 14 C-3.41846009 12.42249576 -3.80896389 10.83755752 -4.1875 9.25 C-4.40792969 8.36828125 -4.62835938 7.4865625 -4.85546875 6.578125 C-5 4 -5 4 -3.67578125 1.671875 C-2 0 -2 0 0 0 Z " fill="#639E3C" transform="translate(207,99)"/>
<path d="M0 0 C2.475 0.99 2.475 0.99 5 2 C5 3.32 5 4.64 5 6 C3.35 6 1.7 6 0 6 C0 4.02 0 2.04 0 0 Z " fill="#1A1C21" transform="translate(266,97)"/>
<path d="M0 0 C2.31 0 4.62 0 7 0 C6.67 1.32 6.34 2.64 6 4 C3.03 3.505 3.03 3.505 0 3 C0 2.01 0 1.02 0 0 Z " fill="#4CB53F" transform="translate(103,192)"/>
<path d="M0 0 C0.99 0.495 0.99 0.495 2 1 C2 2.65 2 4.3 2 6 C2.66 6 3.32 6 4 6 C3.67 7.32 3.34 8.64 3 10 C2.34 9.67 1.68 9.34 1 9 C0.5859375 6.93359375 0.5859375 6.93359375 0.375 4.4375 C0.30023437 3.61121094 0.22546875 2.78492188 0.1484375 1.93359375 C0.09945312 1.29550781 0.05046875 0.65742188 0 0 Z " fill="#1AAA47" transform="translate(585,157)"/>
<path d="M0 0 C1.32 0.66 2.64 1.32 4 2 C3.34 3.32 2.68 4.64 2 6 C1.01 6 0.02 6 -1 6 C-1.042721 4.33388095 -1.04063832 2.66617115 -1 1 C-0.67 0.67 -0.34 0.34 0 0 Z " fill="#151820" transform="translate(358,136)"/>
<path d="M0 0 C7.75 -0.125 7.75 -0.125 10 1 C10 2.98 10 4.96 10 7 C9.01 6.34 8.02 5.68 7 5 C7 3.68 7 2.36 7 1 C4.69 1 2.38 1 0 1 C0 0.67 0 0.34 0 0 Z " fill="#29AA55" transform="translate(774,121)"/>
<path d="M0 0 C0.91007813 0.00902344 1.82015625 0.01804687 2.7578125 0.02734375 C3.45648437 0.03894531 4.15515625 0.05054687 4.875 0.0625 C4.875 0.3925 4.875 0.7225 4.875 1.0625 C-0.075 2.5475 -0.075 2.5475 -5.125 4.0625 C-5.785 3.0725 -6.445 2.0825 -7.125 1.0625 C-4.60024538 -0.19987731 -2.81299534 -0.03606404 0 0 Z " fill="#1FA652" transform="translate(618.125,112.9375)"/>
<path d="M0 0 C2.44897847 3.67346771 2.31537716 5.66356399 2 10 C1.34 10.66 0.68 11.32 0 12 C-1.28571429 3.42857143 -1.28571429 3.42857143 0 0 Z " fill="#618D51" transform="translate(111,161)"/>
<path d="M0 0 C1.4540625 0.0309375 1.4540625 0.0309375 2.9375 0.0625 C2.298125 0.289375 1.65875 0.51625 1 0.75 C-1.33443661 1.91500896 -1.33443661 1.91500896 -1.8125 4.6875 C-1.895 5.47125 -1.9775 6.255 -2.0625 7.0625 C-3.0525 6.4025 -4.0425 5.7425 -5.0625 5.0625 C-3.9375 0.08035714 -3.9375 0.08035714 0 0 Z " fill="#2CAC52" transform="translate(790.0625,121.9375)"/>
<path d="M0 0 C-0.33 1.32 -0.66 2.64 -1 4 C-2.98 4.33 -4.96 4.66 -7 5 C-6 2 -6 2 -4.0625 0.8125 C-2 0 -2 0 0 0 Z " fill="#121820" transform="translate(460,123)"/>
<path d="M0 0 C1.5625 1.5625 1.5625 1.5625 3 4 C2.6875 7.75 2.6875 7.75 2 11 C1.67 11 1.34 11 1 11 C0.63890458 9.35567294 0.28629924 7.7094792 -0.0625 6.0625 C-0.25972656 5.14597656 -0.45695313 4.22945313 -0.66015625 3.28515625 C-0.77230469 2.53105469 -0.88445313 1.77695313 -1 1 C-0.67 0.67 -0.34 0.34 0 0 Z " fill="#14BD3E" transform="translate(797,107)"/>
<path d="M0 0 C2.97 0.495 2.97 0.495 6 1 C6.33 1.99 6.66 2.98 7 4 C5.35 4.33 3.7 4.66 2 5 C1.34 3.35 0.68 1.7 0 0 Z " fill="#45BF19" transform="translate(125,181)"/>
<path d="M0 0 C1.32 0.33 2.64 0.66 4 1 C2 3 0 5 -2 7 C-2.66 6.34 -3.32 5.68 -4 5 C-3.34 4.01 -2.68 3.02 -2 2 C-1.34 2 -0.68 2 0 2 C0 1.34 0 0.68 0 0 Z " fill="#249F5A" transform="translate(647,154)"/>
<path d="M0 0 C2.31 0 4.62 0 7 0 C7 0.66 7 1.32 7 2 C4.69 2.33 2.38 2.66 0 3 C0 2.01 0 1.02 0 0 Z " fill="#41A418" transform="translate(76,143)"/>
<path d="M0 0 C1.32 0.99 2.64 1.98 4 3 C3.67 4.32 3.34 5.64 3 7 C2.01 6.67 1.02 6.34 0 6 C0 4.02 0 2.04 0 0 Z " fill="#0BCD39" transform="translate(785,127)"/>
<path d="M0 0 C3.96 0.33 7.92 0.66 12 1 C12 1.33 12 1.66 12 2 C6.06 2.495 6.06 2.495 0 3 C0 2.01 0 1.02 0 0 Z " fill="#242830" transform="translate(512,95)"/>
<path d="M0 0 C0 0.66 0 1.32 0 2 C-2.95664519 3.4783226 -5.74229737 3.06032783 -9 3 C-5.92807025 0.26939578 -4.09590633 -0.34132553 0 0 Z " fill="#46AB24" transform="translate(161,175)"/>
<path d="M0 0 C-3.625 3 -3.625 3 -7 3 C-7 2.01 -7 1.02 -7 0 C-3.86650268 -1.04449911 -3.01031744 -0.93423645 0 0 Z " fill="#1DA953" transform="translate(646,163)"/>
<path d="M0 0 C3.93846154 3.32307692 3.93846154 3.32307692 4.25 6.75 C4.1675 7.4925 4.085 8.235 4 9 C3.34 9 2.68 9 2 9 C0.50178941 5.62902617 0 3.79557881 0 0 Z " fill="#50A825" transform="translate(103,144)"/>
<path d="M0 0 C0.66 0.33 1.32 0.66 2 1 C1.67 2.98 1.34 4.96 1 7 C0.34 7 -0.32 7 -1 7 C-1.33 8.32 -1.66 9.64 -2 11 C-2.28571429 3.57142857 -2.28571429 3.57142857 0 0 Z " fill="#4AB029" transform="translate(120,118)"/>
<path d="M0 0 C0.66 0.33 1.32 0.66 2 1 C1.67 2.65 1.34 4.3 1 6 C-0.65 6.33 -2.3 6.66 -4 7 C-3.525625 6.21625 -3.05125 5.4325 -2.5625 4.625 C-1.66101977 3.11051322 -0.78820515 1.5764103 0 0 Z " fill="#0D9B49" transform="translate(831,178)"/>
<path d="M0 0 C1.98 0.99 1.98 0.99 4 2 C3.67 3.32 3.34 4.64 3 6 C2.01 5.67 1.02 5.34 0 5 C0 3.35 0 1.7 0 0 Z " fill="#15B34F" transform="translate(608,161)"/>
<path d="M0 0 C1.32 0.99 2.64 1.98 4 3 C3.67 4.32 3.34 5.64 3 7 C2.566875 6.505 2.13375 6.01 1.6875 5.5 C0.00259517 3.66781808 0.00259517 3.66781808 -3 4 C-2.67 3.34 -2.34 2.68 -2 2 C-1.34 2 -0.68 2 0 2 C0 1.34 0 0.68 0 0 Z " fill="#44A824" transform="translate(95,157)"/>
<path d="M0 0 C0.99 0.99 1.98 1.98 3 3 C2.67 3.66 2.34 4.32 2 5 C1.01 5 0.02 5 -1 5 C-1.33 3.68 -1.66 2.36 -2 1 C-1.34 0.67 -0.68 0.34 0 0 Z " fill="#41BC18" transform="translate(117,152)"/>
<path d="M0 0 C0.99 0.33 1.98 0.66 3 1 C2.74438677 3.3431213 2.40729228 5.67843403 2 8 C1.01 8.495 1.01 8.495 0 9 C-0.66 8.67 -1.32 8.34 -2 8 C-2 7.34 -2 6.68 -2 6 C-1.01 6 -0.02 6 1 6 C0.67 4.02 0.34 2.04 0 0 Z " fill="#16B34C" transform="translate(712,140)"/>
<path d="M0 0 C2.29013653 3.4352048 2.17842973 4.985331 2 9 C1.67 8.34 1.34 7.68 1 7 C0.34 7 -0.32 7 -1 7 C-1.04254356 5.00045254 -1.04080783 2.99958364 -1 1 C-0.67 0.67 -0.34 0.34 0 0 Z " fill="#000016" transform="translate(550,144)"/>
<path d="M0 0 C0.66 0 1.32 0 2 0 C3.20272819 2.40545638 3.10071472 3.94996953 3.0625 6.625 C3.05347656 7.44226563 3.04445313 8.25953125 3.03515625 9.1015625 C3.02355469 9.72804687 3.01195312 10.35453125 3 11 C2.67 11 2.34 11 2 11 C2 8.69 2 6.38 2 4 C1.34 4 0.68 4 0 4 C0 2.68 0 1.36 0 0 Z " fill="#0FA25E" transform="translate(729,141)"/>
<path d="M0 0 C0.66 0 1.32 0 2 0 C2.80967438 2.91482778 3.21845993 4.46113217 2.0625 7.3125 C1.5365625 8.1478125 1.5365625 8.1478125 1 9 C0.34 9 -0.32 9 -1 9 C-0.67 6.03 -0.34 3.06 0 0 Z " fill="#52A625" transform="translate(193,138)"/>
<path d="M0 0 C2.64 0 5.28 0 8 0 C7.01 1.485 7.01 1.485 6 3 C3.375 3.1875 3.375 3.1875 1 3 C0.67 2.01 0.34 1.02 0 0 Z " fill="#30B751" transform="translate(647,125)"/>
<path d="M0 0 C0.99 0.66 1.98 1.32 3 2 C2.319375 2.61875 2.319375 2.61875 1.625 3.25 C-0.05950374 5.06408095 -0.99265971 6.75285627 -2 9 C-2.33 7.35 -2.66 5.7 -3 4 C-2.01 3.67 -1.02 3.34 0 3 C0 2.01 0 1.02 0 0 Z " fill="#35C20F" transform="translate(54,124)"/>
<path d="M0 0 C3.375 -0.125 3.375 -0.125 7 0 C7.66 0.66 8.32 1.32 9 2 C8.34 3.32 7.68 4.64 7 6 C6.67 4.35 6.34 2.7 6 1 C4.02 1 2.04 1 0 1 C0 0.67 0 0.34 0 0 Z " fill="#111322" transform="translate(543,120)"/>
<path d="M0 0 C0.66 0 1.32 0 2 0 C1.67 0.66 1.34 1.32 1 2 C0.67 1.34 0.34 0.68 0 0 Z " fill="#002626" transform="translate(445,172)"/>
<path d="" fill="#6A956A" transform="translate(0,0)"/>
<path d="M0 0 C2 1 2 1 2 1 Z " fill="#00FF00" transform="translate(688,144)"/>
<path d="" fill="#FFFFFF" transform="translate(0,0)"/>
<path d="" fill="#FFFFFF" transform="translate(0,0)"/>
<path d="" fill="#FFFFFF" transform="translate(0,0)"/>
<path d="" fill="#FFFFFF" transform="translate(0,0)"/>
<path d="" fill="#FFFFFF" transform="translate(0,0)"/>
<path d="" fill="#FFFFFF" transform="translate(0,0)"/>
<path d="" fill="#FFFFFF" transform="translate(0,0)"/>
<path d="" fill="#FFFFFF" transform="translate(0,0)"/>
<path d="" fill="#FFFFFF" transform="translate(0,0)"/>
<path d="" fill="#FFFFFF" transform="translate(0,0)"/>
<path d="" fill="#FFFFFF" transform="translate(0,0)"/>
<path d="" fill="#FFFFFF" transform="translate(0,0)"/>
<path d="" fill="#FFFFFF" transform="translate(0,0)"/>
<path d="" fill="#FFFFFF" transform="translate(0,0)"/>
<path d="" fill="#FFFFFF" transform="translate(0,0)"/>
<path d="" fill="#FFFFFF" transform="translate(0,0)"/>
<path d="" fill="#FFFFFF" transform="translate(0,0)"/>
<path d="" fill="#FFFFFF" transform="translate(0,0)"/>
<path d="" fill="#FFFFFF" transform="translate(0,0)"/>
<path d="" fill="#FFFFFF" transform="translate(0,0)"/>
<path d="" fill="#FFFFFF" transform="translate(0,0)"/>
<path d="" fill="#000000" transform="translate(0,0)"/>
<path d="" fill="#00FF00" transform="translate(0,0)"/>
<path d="" fill="#FFFFFF" transform="translate(0,0)"/>
<path d="" fill="#FFFFFF" transform="translate(0,0)"/>
<path d="" fill="#FFFFFF" transform="translate(0,0)"/>
<path d="" fill="#00FF00" transform="translate(0,0)"/>
<path d="" fill="#000000" transform="translate(0,0)"/>
<path d="" fill="#FFFFFF" transform="translate(0,0)"/>
<path d="" fill="#FFFFFF" transform="translate(0,0)"/>
<path d="" fill="#FFFFFF" transform="translate(0,0)"/>
<path d="" fill="#FFFFFF" transform="translate(0,0)"/>
<path d="" fill="#FFFFFF" transform="translate(0,0)"/>
<path d="" fill="#808080" transform="translate(0,0)"/>
<path d="" fill="#00FF00" transform="translate(0,0)"/>
<path d="" fill="#808080" transform="translate(0,0)"/>
<path d="" fill="#FFFFFF" transform="translate(0,0)"/>
<path d="" fill="#FFFFFF" transform="translate(0,0)"/>
<path d="" fill="#FFFFFF" transform="translate(0,0)"/>
<path d="" fill="#FFFFFF" transform="translate(0,0)"/>
<path d="" fill="#FFFFFF" transform="translate(0,0)"/>
<path d="" fill="#FFFFFF" transform="translate(0,0)"/>
<path d="" fill="#FFFFFF" transform="translate(0,0)"/>
<path d="" fill="#FFFFFF" transform="translate(0,0)"/>
<path d="" fill="#FFFFFF" transform="translate(0,0)"/>
<path d="" fill="#FFFFFF" transform="translate(0,0)"/>
<path d="" fill="#FFFFFF" transform="translate(0,0)"/>
<path d="" fill="#FFFFFF" transform="translate(0,0)"/>
<path d="" fill="#FFFFFF" transform="translate(0,0)"/>
<path d="" fill="#FFFFFF" transform="translate(0,0)"/>
<path d="" fill="#FFFFFF" transform="translate(0,0)"/>
<path d="" fill="#FFFFFF" transform="translate(0,0)"/>
<path d="" fill="#FFFFFF" transform="translate(0,0)"/>
<path d="" fill="#FFFFFF" transform="translate(0,0)"/>
<path d="" fill="#FFFFFF" transform="translate(0,0)"/>
<path d="" fill="#FFFFFF" transform="translate(0,0)"/>
<path d="" fill="#FFFFFF" transform="translate(0,0)"/>
<path d="" fill="#FFFFFF" transform="translate(0,0)"/>
<path d="" fill="#FFFFFF" transform="translate(0,0)"/>
<path d="" fill="#FFFFFF" transform="translate(0,0)"/>
<path d="" fill="#FFFFFF" transform="translate(0,0)"/>
<path d="" fill="#FFFFFF" transform="translate(0,0)"/>
<path d="" fill="#FFFFFF" transform="translate(0,0)"/>
</svg>
